%TF.GenerationSoftware,KiCad,Pcbnew,8.0.7*%
%TF.CreationDate,2025-02-15T14:18:58+03:00*%
%TF.ProjectId,IoT Edge Device V1,496f5420-4564-4676-9520-446576696365,rev?*%
%TF.SameCoordinates,Original*%
%TF.FileFunction,Legend,Bot*%
%TF.FilePolarity,Positive*%
%FSLAX46Y46*%
G04 Gerber Fmt 4.6, Leading zero omitted, Abs format (unit mm)*
G04 Created by KiCad (PCBNEW 8.0.7) date 2025-02-15 14:18:58*
%MOMM*%
%LPD*%
G01*
G04 APERTURE LIST*
%ADD10C,0.000000*%
G04 APERTURE END LIST*
D10*
%TO.C,G\u002A\u002A\u002A*%
G36*
X124931661Y-112303044D02*
G01*
X125125802Y-112427643D01*
X125243002Y-112637560D01*
X125272868Y-112882791D01*
X125205010Y-113113333D01*
X125029036Y-113279181D01*
X124760524Y-113345720D01*
X124510524Y-113274660D01*
X124333948Y-113079832D01*
X124267036Y-112784750D01*
X124267481Y-112766339D01*
X124353906Y-112530293D01*
X124555693Y-112356078D01*
X124823086Y-112288132D01*
X124931661Y-112303044D01*
G37*
G36*
X144754216Y-112290152D02*
G01*
X145000419Y-112385827D01*
X145189078Y-112584950D01*
X145264369Y-112832320D01*
X145210494Y-113014737D01*
X145041285Y-113213320D01*
X145032310Y-113220305D01*
X144844147Y-113339543D01*
X144698770Y-113388798D01*
X144552916Y-113333424D01*
X144372555Y-113177746D01*
X144224883Y-112980196D01*
X144163703Y-112799980D01*
X144168473Y-112746277D01*
X144274575Y-112528106D01*
X144475973Y-112357214D01*
X144714036Y-112288132D01*
X144754216Y-112290152D01*
G37*
G36*
X125774980Y-114171965D02*
G01*
X125781192Y-114251327D01*
X125775261Y-114417025D01*
X125695941Y-114479705D01*
X125499814Y-114489465D01*
X125198369Y-114489465D01*
X125198369Y-116135100D01*
X125198369Y-117780736D01*
X125473536Y-117807267D01*
X125482089Y-117808103D01*
X125660871Y-117844118D01*
X125742564Y-117940328D01*
X125774980Y-118151298D01*
X125801258Y-118468798D01*
X124775036Y-118468798D01*
X123748814Y-118468798D01*
X123775092Y-118151298D01*
X123775802Y-118142811D01*
X123809056Y-117936007D01*
X123892936Y-117842373D01*
X124074989Y-117807383D01*
X124348608Y-117780967D01*
X124371322Y-115817716D01*
X124394036Y-113854465D01*
X125071369Y-113854465D01*
X125748703Y-113854465D01*
X125774980Y-114171965D01*
G37*
G36*
X145031536Y-113829874D02*
G01*
X145730036Y-113854465D01*
X145730036Y-114150798D01*
X145729832Y-114196134D01*
X145709625Y-114368506D01*
X145620599Y-114443922D01*
X145412536Y-114473409D01*
X145095036Y-114499687D01*
X145095036Y-116145576D01*
X145095036Y-117791465D01*
X145299778Y-117791465D01*
X145558921Y-117818840D01*
X145722738Y-117924642D01*
X145772369Y-118125079D01*
X145757301Y-118293833D01*
X145713382Y-118414897D01*
X145622941Y-118434900D01*
X145395208Y-118449215D01*
X145067619Y-118454715D01*
X144676216Y-118450174D01*
X143698036Y-118426465D01*
X143670090Y-118181652D01*
X143688985Y-117964067D01*
X143826428Y-117834156D01*
X144100203Y-117792761D01*
X144333036Y-117791465D01*
X144333036Y-115798374D01*
X144333036Y-113805283D01*
X145031536Y-113829874D01*
G37*
G36*
X122086869Y-112774842D02*
G01*
X122404369Y-112814658D01*
X122404369Y-113308284D01*
X122404369Y-113801910D01*
X122721869Y-113828187D01*
X122770425Y-113832396D01*
X122953318Y-113866393D01*
X123026226Y-113955518D01*
X123039369Y-114150798D01*
X123039258Y-114185037D01*
X123020424Y-114364456D01*
X122933755Y-114442921D01*
X122728529Y-114473012D01*
X122417688Y-114498893D01*
X122389862Y-116039345D01*
X122379669Y-116550206D01*
X122366995Y-116970593D01*
X122349301Y-117275704D01*
X122323092Y-117493734D01*
X122284876Y-117652879D01*
X122231161Y-117781334D01*
X122158452Y-117907296D01*
X121939745Y-118167776D01*
X121608119Y-118397010D01*
X121261954Y-118503146D01*
X120846675Y-118531440D01*
X120451785Y-118472537D01*
X120141363Y-118329390D01*
X120058102Y-118264844D01*
X119915869Y-118113207D01*
X119911632Y-117976536D01*
X120036019Y-117808484D01*
X120158897Y-117693385D01*
X120276852Y-117671409D01*
X120456425Y-117748815D01*
X120474406Y-117757995D01*
X120786623Y-117863673D01*
X121050436Y-117822638D01*
X121310216Y-117628644D01*
X121557703Y-117381157D01*
X121557703Y-115935311D01*
X121557703Y-114489465D01*
X120917592Y-114489465D01*
X120277481Y-114489465D01*
X120303759Y-114171965D01*
X120330036Y-113854465D01*
X120943869Y-113829589D01*
X121557703Y-113804713D01*
X121557703Y-113353123D01*
X121577095Y-113042682D01*
X121655503Y-112848441D01*
X121817319Y-112768023D01*
X122086869Y-112774842D01*
G37*
G36*
X151513528Y-111712008D02*
G01*
X151900836Y-111812886D01*
X152161235Y-111961296D01*
X152403604Y-112237371D01*
X152552390Y-112627616D01*
X152617959Y-113151376D01*
X152647883Y-113802954D01*
X152956626Y-113828709D01*
X152993410Y-113831910D01*
X153178919Y-113867049D01*
X153260549Y-113962181D01*
X153291647Y-114171965D01*
X153317925Y-114489465D01*
X152974147Y-114489465D01*
X152630369Y-114489465D01*
X152630369Y-116140465D01*
X152630369Y-117791465D01*
X152835111Y-117791465D01*
X152879847Y-117791928D01*
X153138113Y-117831498D01*
X153270448Y-117952875D01*
X153307703Y-118181523D01*
X153307703Y-118468798D01*
X152117259Y-118468798D01*
X150926814Y-118468798D01*
X150953092Y-118151298D01*
X150979369Y-117833798D01*
X151423869Y-117808207D01*
X151868369Y-117782616D01*
X151868369Y-116139602D01*
X151868369Y-114496588D01*
X151212203Y-114471860D01*
X150556036Y-114447132D01*
X150556036Y-114150798D01*
X150556036Y-113854465D01*
X151222108Y-113829558D01*
X151888181Y-113804652D01*
X151851790Y-113301551D01*
X151784237Y-112924273D01*
X151615282Y-112596671D01*
X151361366Y-112406161D01*
X151034620Y-112361119D01*
X150647177Y-112469920D01*
X150538674Y-112511801D01*
X150406504Y-112499796D01*
X150269535Y-112364087D01*
X150250894Y-112340591D01*
X150160138Y-112173548D01*
X150197378Y-112049716D01*
X150357784Y-111912357D01*
X150690147Y-111768953D01*
X151092680Y-111699767D01*
X151513528Y-111712008D01*
G37*
G36*
X146628782Y-113839837D02*
G01*
X146726372Y-113853197D01*
X147269614Y-114001637D01*
X147717866Y-114255877D01*
X148042789Y-114600668D01*
X148270036Y-114945357D01*
X148312369Y-114399911D01*
X148354703Y-113854465D01*
X149000355Y-113829926D01*
X149198314Y-113823097D01*
X149448871Y-113822694D01*
X149587998Y-113845741D01*
X149652944Y-113901507D01*
X149680958Y-113999259D01*
X149693212Y-114075633D01*
X149690957Y-114322356D01*
X149586813Y-114451892D01*
X149364495Y-114489465D01*
X149074369Y-114489465D01*
X149074369Y-116140465D01*
X149074369Y-117791465D01*
X149318003Y-117791465D01*
X149568464Y-117847345D01*
X149712046Y-118009674D01*
X149717211Y-118256032D01*
X149717136Y-118256331D01*
X149689853Y-118345753D01*
X149641498Y-118405730D01*
X149542418Y-118442143D01*
X149362963Y-118460872D01*
X149073478Y-118467797D01*
X148644312Y-118468798D01*
X147624814Y-118468798D01*
X147651092Y-118151298D01*
X147651918Y-118141430D01*
X147685247Y-117935369D01*
X147769515Y-117842170D01*
X147952536Y-117807267D01*
X148227703Y-117780736D01*
X148225843Y-116833600D01*
X148217814Y-116364094D01*
X148192186Y-116015171D01*
X148144069Y-115755309D01*
X148068558Y-115544295D01*
X147854392Y-115198064D01*
X147479960Y-114862393D01*
X147010508Y-114649549D01*
X146470869Y-114574604D01*
X146347400Y-114571481D01*
X146241935Y-114535050D01*
X146201964Y-114420144D01*
X146195703Y-114181338D01*
X146195703Y-113788545D01*
X146628782Y-113839837D01*
G37*
G36*
X132187965Y-103165591D02*
G01*
X132225703Y-103307759D01*
X132257414Y-103412873D01*
X132395036Y-103525132D01*
X132493885Y-103583013D01*
X132567062Y-103721337D01*
X132567745Y-103735966D01*
X132629658Y-103924837D01*
X132754755Y-104089614D01*
X132891203Y-104160132D01*
X132921744Y-104164366D01*
X132987703Y-104242141D01*
X133002455Y-104275995D01*
X133106139Y-104278702D01*
X133164813Y-104267986D01*
X133280469Y-104323693D01*
X133327048Y-104368060D01*
X133484355Y-104414132D01*
X133621842Y-104471993D01*
X133718811Y-104652180D01*
X133743158Y-104913315D01*
X133684249Y-105212907D01*
X133634194Y-105375054D01*
X133618636Y-105539561D01*
X133669432Y-105712396D01*
X133796881Y-105962048D01*
X133816590Y-105998344D01*
X133930448Y-106225747D01*
X133978630Y-106402717D01*
X133970184Y-106601030D01*
X133914157Y-106892459D01*
X133851227Y-107129965D01*
X133747603Y-107399955D01*
X133643013Y-107568821D01*
X133490496Y-107673136D01*
X133255532Y-107675401D01*
X133182009Y-107654976D01*
X132917358Y-107541045D01*
X132723978Y-107397234D01*
X132649036Y-107256148D01*
X132640506Y-107200056D01*
X132589613Y-106999351D01*
X132503061Y-106703550D01*
X132392655Y-106354179D01*
X132351476Y-106225890D01*
X132216964Y-105780322D01*
X132093185Y-105335378D01*
X132002594Y-104970711D01*
X131997241Y-104946931D01*
X131921084Y-104644247D01*
X131848064Y-104409356D01*
X131793308Y-104291365D01*
X131727422Y-104135572D01*
X131742182Y-103851347D01*
X131853896Y-103484512D01*
X131856811Y-103477291D01*
X131974154Y-103264317D01*
X132094327Y-103155764D01*
X132187965Y-103165591D01*
G37*
G36*
X134866130Y-115547798D02*
G01*
X134860548Y-115898873D01*
X134862434Y-116384748D01*
X134873977Y-116830967D01*
X134894065Y-117172772D01*
X134914677Y-117394794D01*
X134946006Y-117619570D01*
X134994021Y-117738134D01*
X135077938Y-117788273D01*
X135216971Y-117807772D01*
X135220066Y-117808074D01*
X135397331Y-117843805D01*
X135478975Y-117940085D01*
X135511647Y-118151298D01*
X135537925Y-118468798D01*
X134518427Y-118468798D01*
X134516995Y-118468798D01*
X134088264Y-118467788D01*
X133799131Y-118460838D01*
X133619943Y-118442068D01*
X133521048Y-118405597D01*
X133472794Y-118345545D01*
X133445528Y-118256032D01*
X133447784Y-118017819D01*
X133586351Y-117851806D01*
X133844736Y-117791465D01*
X134088369Y-117791465D01*
X134088369Y-116965406D01*
X134086281Y-116773467D01*
X134070389Y-116389003D01*
X134042273Y-116063524D01*
X134006011Y-115852181D01*
X133797758Y-115385658D01*
X133492426Y-115039798D01*
X134088369Y-115039798D01*
X134130703Y-115082132D01*
X134173036Y-115039798D01*
X134130703Y-114997465D01*
X134088369Y-115039798D01*
X133492426Y-115039798D01*
X133455085Y-114997501D01*
X133000662Y-114726447D01*
X132449835Y-114584991D01*
X132014036Y-114531798D01*
X132014036Y-114193132D01*
X132014036Y-113854465D01*
X132440633Y-113864777D01*
X132956376Y-113953102D01*
X133441633Y-114196886D01*
X133851118Y-114583348D01*
X134130703Y-114932297D01*
X134173036Y-114393381D01*
X134215369Y-113854465D01*
X134850369Y-113854465D01*
X135485369Y-113854465D01*
X135485369Y-114150798D01*
X135469726Y-114350853D01*
X135388138Y-114444988D01*
X135189036Y-114489465D01*
X134892703Y-114531798D01*
X134879417Y-115039798D01*
X134866130Y-115547798D01*
G37*
G36*
X142882146Y-115196562D02*
G01*
X142787469Y-115957549D01*
X142559763Y-116650050D01*
X142209109Y-117258202D01*
X141745586Y-117766141D01*
X141179273Y-118158003D01*
X140520250Y-118417924D01*
X139922856Y-118528705D01*
X139190969Y-118525332D01*
X138504726Y-118368394D01*
X137880408Y-118066260D01*
X137334293Y-117627300D01*
X136882660Y-117059885D01*
X136541789Y-116372385D01*
X136490160Y-116227252D01*
X136425179Y-115987256D01*
X136390081Y-115728215D01*
X136379453Y-115400217D01*
X136385452Y-115082132D01*
X137271849Y-115082132D01*
X137275679Y-115387143D01*
X137300368Y-115747629D01*
X137354526Y-116025243D01*
X137445721Y-116271766D01*
X137703419Y-116720384D01*
X138102092Y-117168156D01*
X138568081Y-117488680D01*
X139030315Y-117656649D01*
X139598011Y-117731690D01*
X140159680Y-117683469D01*
X140660918Y-117511396D01*
X140711293Y-117483696D01*
X141051391Y-117224729D01*
X141382414Y-116868566D01*
X141657300Y-116472349D01*
X141828985Y-116093217D01*
X141853591Y-116003022D01*
X141934117Y-115518102D01*
X141956863Y-114983469D01*
X141921828Y-114468752D01*
X141829011Y-114043577D01*
X141597962Y-113569155D01*
X141218312Y-113116923D01*
X140740040Y-112765727D01*
X140194911Y-112538323D01*
X139614693Y-112457465D01*
X139444189Y-112462969D01*
X138834631Y-112582077D01*
X138298548Y-112849557D01*
X137850805Y-113255999D01*
X137506271Y-113791994D01*
X137455127Y-113900917D01*
X137359494Y-114142881D01*
X137304003Y-114382252D01*
X137278254Y-114676258D01*
X137271849Y-115082132D01*
X136385452Y-115082132D01*
X136387881Y-114953349D01*
X136388670Y-114928044D01*
X136406355Y-114505838D01*
X136435094Y-114199223D01*
X136485310Y-113957036D01*
X136567425Y-113728117D01*
X136691864Y-113461304D01*
X137077870Y-112856109D01*
X137595351Y-112347391D01*
X138222207Y-111964372D01*
X138348369Y-111908460D01*
X138659250Y-111802958D01*
X139004675Y-111741184D01*
X139451665Y-111709230D01*
X139569203Y-111705107D01*
X140128620Y-111717111D01*
X140593178Y-111797733D01*
X141018966Y-111961279D01*
X141462073Y-112222057D01*
X141499739Y-112247553D01*
X142052507Y-112722968D01*
X142466019Y-113294355D01*
X142739262Y-113959921D01*
X142871225Y-114717874D01*
X142877284Y-114983469D01*
X142882146Y-115196562D01*
G37*
G36*
X130955703Y-118468798D02*
G01*
X130574703Y-118468798D01*
X130193703Y-118468798D01*
X130193703Y-118113523D01*
X130193703Y-117758247D01*
X129907973Y-118035188D01*
X129843505Y-118093631D01*
X129567763Y-118293378D01*
X129294139Y-118434239D01*
X129023200Y-118502909D01*
X128549752Y-118523420D01*
X128064515Y-118449175D01*
X127640146Y-118286658D01*
X127453263Y-118164073D01*
X127105302Y-117837501D01*
X126818297Y-117445259D01*
X126641564Y-117048493D01*
X126603931Y-116874446D01*
X126561876Y-116447151D01*
X126561921Y-116204247D01*
X127333497Y-116204247D01*
X127395738Y-116677290D01*
X127560200Y-117112705D01*
X127825657Y-117477133D01*
X128190886Y-117737217D01*
X128564979Y-117857424D01*
X128936834Y-117841845D01*
X129350263Y-117685632D01*
X129672515Y-117451626D01*
X129949251Y-117077451D01*
X130122766Y-116619491D01*
X130180426Y-116112588D01*
X130109594Y-115591587D01*
X130036509Y-115392046D01*
X129833891Y-115057229D01*
X129567632Y-114767933D01*
X129276270Y-114562706D01*
X128998343Y-114480093D01*
X128907780Y-114477649D01*
X128546780Y-114486203D01*
X128287780Y-114535622D01*
X128077036Y-114634938D01*
X127772335Y-114892926D01*
X127520571Y-115278706D01*
X127374700Y-115726933D01*
X127333497Y-116204247D01*
X126561921Y-116204247D01*
X126561964Y-115970686D01*
X126602651Y-115516483D01*
X126682398Y-115155972D01*
X126786356Y-114898356D01*
X127094049Y-114427618D01*
X127508042Y-114087674D01*
X128023984Y-113881516D01*
X128637525Y-113812132D01*
X128880253Y-113816339D01*
X129155041Y-113847201D01*
X129380006Y-113923757D01*
X129626793Y-114064267D01*
X129788053Y-114174016D01*
X129958303Y-114313415D01*
X130024369Y-114402933D01*
X130027121Y-114424782D01*
X130109036Y-114489465D01*
X130119915Y-114481759D01*
X130151038Y-114350547D01*
X130174225Y-114066759D01*
X130188705Y-113643147D01*
X130193703Y-113092465D01*
X130193703Y-111695465D01*
X130865331Y-111695465D01*
X130976501Y-111695740D01*
X131275656Y-111703534D01*
X131453048Y-111728544D01*
X131545717Y-111779416D01*
X131590703Y-111864798D01*
X131597795Y-111888243D01*
X131614087Y-112148936D01*
X131494050Y-112314707D01*
X131246331Y-112372798D01*
X130955703Y-112372798D01*
X130955703Y-115420798D01*
X130955703Y-116112588D01*
X130955703Y-118468798D01*
G37*
G36*
X159663937Y-115486706D02*
G01*
X159870646Y-116033042D01*
X160052721Y-116517124D01*
X160201180Y-116914984D01*
X160307042Y-117202651D01*
X160361322Y-117356156D01*
X160369498Y-117381232D01*
X160433112Y-117545636D01*
X160518561Y-117639830D01*
X160674321Y-117696009D01*
X160948869Y-117746371D01*
X161022760Y-117759172D01*
X161189374Y-117810375D01*
X161254939Y-117916217D01*
X161266369Y-118133968D01*
X161266369Y-118468798D01*
X160081036Y-118468798D01*
X158895703Y-118468798D01*
X158895703Y-118139190D01*
X158897656Y-118058728D01*
X158948600Y-117842451D01*
X159094134Y-117735521D01*
X159368294Y-117706798D01*
X159404555Y-117706260D01*
X159506630Y-117687117D01*
X159551087Y-117620277D01*
X159536515Y-117478395D01*
X159461506Y-117234129D01*
X159324649Y-116860132D01*
X159086157Y-116225132D01*
X157754951Y-116225132D01*
X156423746Y-116225132D01*
X156145009Y-116965965D01*
X155866272Y-117706798D01*
X156104063Y-117706798D01*
X156249515Y-117711084D01*
X156472734Y-117762250D01*
X156581239Y-117895069D01*
X156609703Y-118139190D01*
X156609703Y-118468798D01*
X155424369Y-118468798D01*
X154239036Y-118468798D01*
X154239036Y-118133968D01*
X154239529Y-118056145D01*
X154261819Y-117876604D01*
X154351850Y-117792342D01*
X154556536Y-117746034D01*
X154605097Y-117737850D01*
X154822157Y-117699699D01*
X154949015Y-117674872D01*
X154991569Y-117602694D01*
X155088106Y-117389049D01*
X155230440Y-117051804D01*
X155411278Y-116608832D01*
X155623329Y-116078010D01*
X155859301Y-115477209D01*
X155889315Y-115399632D01*
X156779368Y-115399632D01*
X156779734Y-115404846D01*
X156837013Y-115452017D01*
X157005389Y-115483111D01*
X157304180Y-115500226D01*
X157752703Y-115505465D01*
X157839576Y-115505330D01*
X158258345Y-115498540D01*
X158532046Y-115479853D01*
X158681211Y-115446997D01*
X158726369Y-115397700D01*
X158724723Y-115380796D01*
X158683743Y-115224798D01*
X158598912Y-114968128D01*
X158485231Y-114656867D01*
X158342303Y-114281039D01*
X158166381Y-113817407D01*
X158010307Y-113405111D01*
X157979723Y-113325352D01*
X157869439Y-113057795D01*
X157783366Y-112879265D01*
X157738012Y-112824934D01*
X157726785Y-112842726D01*
X157662120Y-112987386D01*
X157557975Y-113245677D01*
X157426920Y-113583840D01*
X157281524Y-113968116D01*
X157134356Y-114364747D01*
X156997988Y-114739973D01*
X156884987Y-115060035D01*
X156807924Y-115291174D01*
X156779368Y-115399632D01*
X155889315Y-115399632D01*
X156111901Y-114824305D01*
X156410971Y-114052938D01*
X156709119Y-113303066D01*
X156956381Y-112704707D01*
X157151823Y-112260053D01*
X157294512Y-111971295D01*
X157383512Y-111840628D01*
X157395596Y-111830925D01*
X157518274Y-111760635D01*
X157689397Y-111721213D01*
X157949044Y-111707323D01*
X158337292Y-111713628D01*
X159107369Y-111737798D01*
X159107369Y-112076465D01*
X159106895Y-112154059D01*
X159086521Y-112333689D01*
X159005836Y-112412150D01*
X158823893Y-112442282D01*
X158725176Y-112454920D01*
X158592247Y-112508054D01*
X158581428Y-112611616D01*
X158581748Y-112612708D01*
X158623352Y-112730938D01*
X158716964Y-112984652D01*
X158854293Y-113351773D01*
X159027047Y-113810223D01*
X159226934Y-114337923D01*
X159445664Y-114912798D01*
X159630086Y-115397700D01*
X159663937Y-115486706D01*
G37*
G36*
X138505737Y-88586140D02*
G01*
X138705593Y-88623113D01*
X138866614Y-88606970D01*
X139050518Y-88540765D01*
X139092534Y-88523851D01*
X139342165Y-88444015D01*
X139538543Y-88410899D01*
X139549198Y-88410682D01*
X139789826Y-88369333D01*
X140100905Y-88274480D01*
X140408546Y-88151885D01*
X140638860Y-88027304D01*
X140879044Y-87925675D01*
X141150941Y-87924440D01*
X141393305Y-88017471D01*
X141561168Y-88186827D01*
X141609566Y-88414570D01*
X141620818Y-88596357D01*
X141697504Y-88780040D01*
X141720241Y-88806343D01*
X141805799Y-88864823D01*
X141925899Y-88846824D01*
X142136616Y-88748291D01*
X142210390Y-88712662D01*
X142452928Y-88619018D01*
X142633795Y-88581465D01*
X142657868Y-88579237D01*
X142825401Y-88494703D01*
X142993060Y-88325703D01*
X143105938Y-88200003D01*
X143322518Y-88058524D01*
X143634581Y-87951557D01*
X144079036Y-87863386D01*
X144349597Y-87782467D01*
X144585945Y-87653949D01*
X144796520Y-87492117D01*
X144607112Y-87290501D01*
X144494807Y-87149435D01*
X144423596Y-86927857D01*
X144515715Y-86739320D01*
X144568705Y-86645339D01*
X144503649Y-86508674D01*
X144466804Y-86463834D01*
X144425293Y-86384129D01*
X144484520Y-86323856D01*
X144671703Y-86239405D01*
X144848385Y-86196552D01*
X145057627Y-86213525D01*
X145146303Y-86234230D01*
X145390307Y-86267331D01*
X145728480Y-86299015D01*
X146115960Y-86324574D01*
X146365504Y-86339248D01*
X146757421Y-86368130D01*
X147085222Y-86399166D01*
X147296369Y-86427763D01*
X147348315Y-86439045D01*
X147603422Y-86516820D01*
X147898388Y-86630588D01*
X148182998Y-86758237D01*
X148407035Y-86877655D01*
X148520284Y-86966727D01*
X148566698Y-86990950D01*
X148743305Y-87008264D01*
X148994340Y-87000908D01*
X149262448Y-86973539D01*
X149490276Y-86930814D01*
X149620470Y-86877390D01*
X149640331Y-86860178D01*
X149785099Y-86809015D01*
X149927128Y-86907043D01*
X150080975Y-87163298D01*
X150249561Y-87425847D01*
X150574671Y-87692465D01*
X150580715Y-87695704D01*
X150894192Y-87955408D01*
X151105877Y-88318255D01*
X151186969Y-88735198D01*
X151210562Y-88975166D01*
X151307040Y-89201880D01*
X151505786Y-89400433D01*
X151836329Y-89610632D01*
X152048029Y-89745369D01*
X152266569Y-89925304D01*
X152380854Y-90074927D01*
X152450539Y-90205011D01*
X152540316Y-90274798D01*
X152587903Y-90305742D01*
X152698335Y-90451682D01*
X152826074Y-90676965D01*
X152945505Y-90910445D01*
X153129451Y-91262410D01*
X153311641Y-91604445D01*
X153346144Y-91668660D01*
X153476416Y-91924733D01*
X153532903Y-92084322D01*
X153524891Y-92189360D01*
X153461669Y-92281778D01*
X153362244Y-92462785D01*
X153291850Y-92791461D01*
X153280167Y-93183610D01*
X153324321Y-93587160D01*
X153421438Y-93950035D01*
X153568644Y-94220162D01*
X153627901Y-94325783D01*
X153575048Y-94443986D01*
X153561982Y-94459894D01*
X153501588Y-94625752D01*
X153477036Y-94860753D01*
X153474936Y-94921097D01*
X153399507Y-95176831D01*
X153232424Y-95311489D01*
X152996336Y-95304174D01*
X152985443Y-95300674D01*
X152898885Y-95282892D01*
X152960230Y-95338281D01*
X152974415Y-95349336D01*
X153006952Y-95426746D01*
X152941419Y-95548866D01*
X152762200Y-95748009D01*
X152655517Y-95865887D01*
X152460559Y-96121729D01*
X152333578Y-96342621D01*
X152186884Y-96573154D01*
X151981275Y-96762532D01*
X151866944Y-96839280D01*
X151619513Y-97020030D01*
X151360369Y-97222402D01*
X151262689Y-97301262D01*
X150974149Y-97520704D01*
X150750025Y-97646529D01*
X150540367Y-97692106D01*
X150295225Y-97670807D01*
X149964649Y-97596000D01*
X149663389Y-97532417D01*
X149343058Y-97493591D01*
X149127844Y-97503436D01*
X148896215Y-97561572D01*
X149479336Y-98215018D01*
X149555297Y-98300445D01*
X150669380Y-99627254D01*
X151688484Y-100981479D01*
X152580487Y-102320594D01*
X152989010Y-102978724D01*
X153296523Y-102922578D01*
X153312217Y-102919666D01*
X153579644Y-102859384D01*
X153800048Y-102793615D01*
X153894708Y-102760281D01*
X154032409Y-102737044D01*
X154101118Y-102799687D01*
X154117158Y-102975631D01*
X154096847Y-103292298D01*
X154081761Y-103571729D01*
X154103797Y-103909897D01*
X154186440Y-104191638D01*
X154186758Y-104192398D01*
X154289293Y-104459370D01*
X154308880Y-104602301D01*
X154238143Y-104648630D01*
X154069703Y-104625798D01*
X154059780Y-104623664D01*
X153887060Y-104604086D01*
X153815703Y-104629994D01*
X153815898Y-104633152D01*
X153846911Y-104748129D01*
X153920572Y-104972892D01*
X154022076Y-105262092D01*
X154143126Y-105631943D01*
X154306939Y-106405039D01*
X154324147Y-107027498D01*
X154326013Y-107094995D01*
X154205532Y-107695597D01*
X153950679Y-108200628D01*
X153566636Y-108603875D01*
X153058588Y-108899123D01*
X152431718Y-109080157D01*
X151691208Y-109140763D01*
X150842242Y-109074725D01*
X150360216Y-108985248D01*
X149588717Y-108785384D01*
X148732425Y-108509835D01*
X147822715Y-108171201D01*
X146890960Y-107782084D01*
X145968537Y-107355087D01*
X145086819Y-106902810D01*
X144277183Y-106437856D01*
X144086693Y-106322311D01*
X143870871Y-106201541D01*
X143740539Y-106155345D01*
X143660067Y-106173762D01*
X143593824Y-106246832D01*
X143523976Y-106363404D01*
X143445178Y-106573132D01*
X143435524Y-106622530D01*
X143394975Y-106835537D01*
X143336672Y-107145709D01*
X143269764Y-107504465D01*
X143206745Y-107828150D01*
X143124832Y-108173454D01*
X143038398Y-108419400D01*
X142932256Y-108606301D01*
X142791214Y-108774465D01*
X142659574Y-108956731D01*
X142495077Y-109268777D01*
X142341851Y-109630609D01*
X142225733Y-109980353D01*
X142172557Y-110256132D01*
X142128924Y-110595825D01*
X142024250Y-110853900D01*
X141849187Y-111002742D01*
X141709869Y-111062275D01*
X141549882Y-111089550D01*
X141354708Y-111059037D01*
X141063385Y-110968046D01*
X140948940Y-110934225D01*
X140631566Y-110877441D01*
X140361926Y-110874039D01*
X140167038Y-110887285D01*
X139659097Y-110811449D01*
X139165825Y-110588667D01*
X138722099Y-110232583D01*
X138510861Y-110001916D01*
X138269240Y-109708043D01*
X138092717Y-109460026D01*
X138038954Y-109376188D01*
X137844953Y-109103643D01*
X137662444Y-108882172D01*
X137574051Y-108772625D01*
X137462923Y-108527499D01*
X137407949Y-108180972D01*
X137398586Y-108090835D01*
X137304756Y-107738346D01*
X137128606Y-107530383D01*
X136866510Y-107462132D01*
X136763250Y-107430813D01*
X136631348Y-107298364D01*
X136618748Y-107272309D01*
X136558599Y-107012156D01*
X136549509Y-106675862D01*
X136588894Y-106337449D01*
X136674171Y-106070940D01*
X136722929Y-105972478D01*
X136747734Y-105865049D01*
X136706030Y-105756447D01*
X136579532Y-105607700D01*
X136349958Y-105379833D01*
X136347105Y-105377051D01*
X136079037Y-105138154D01*
X135811579Y-104935981D01*
X135602225Y-104814037D01*
X135581451Y-104804965D01*
X135319638Y-104643364D01*
X135092804Y-104435256D01*
X135020849Y-104344820D01*
X134944251Y-104210612D01*
X134903653Y-104045062D01*
X134889910Y-103802246D01*
X134893878Y-103436239D01*
X134895496Y-103362936D01*
X136122785Y-103362936D01*
X136125833Y-103809432D01*
X136136042Y-104233799D01*
X136153251Y-104599862D01*
X136177296Y-104871442D01*
X136208015Y-105012364D01*
X136243930Y-105063856D01*
X136397442Y-105159370D01*
X136565343Y-105163355D01*
X136675437Y-105067324D01*
X136685822Y-104983179D01*
X136694827Y-104750144D01*
X136699415Y-104402014D01*
X136699237Y-103968628D01*
X136693947Y-103479824D01*
X136687673Y-103080711D01*
X137152142Y-103080711D01*
X137154008Y-103564246D01*
X137179540Y-103885672D01*
X137228546Y-104042180D01*
X137267230Y-104083263D01*
X137444146Y-104154779D01*
X137627436Y-104058532D01*
X137649807Y-104014668D01*
X137686637Y-103822272D01*
X137712424Y-103527140D01*
X137726566Y-103173466D01*
X137726743Y-103139147D01*
X138077599Y-103139147D01*
X138081350Y-103361091D01*
X138095674Y-103820761D01*
X138116621Y-104251643D01*
X138127714Y-104402014D01*
X138141099Y-104583465D01*
X138171850Y-104851669D01*
X138214250Y-105037304D01*
X138279935Y-105127254D01*
X138385581Y-105160903D01*
X138513057Y-105152946D01*
X138620492Y-105073262D01*
X138631452Y-104988108D01*
X138641141Y-104753672D01*
X138646270Y-104404325D01*
X138646447Y-103970069D01*
X138641280Y-103480908D01*
X138634140Y-103063443D01*
X138623661Y-102641746D01*
X138609312Y-102347651D01*
X138588147Y-102157387D01*
X138557220Y-102047180D01*
X138513586Y-101993256D01*
X138454299Y-101971842D01*
X138302134Y-101977784D01*
X138190477Y-102078948D01*
X138119668Y-102294355D01*
X138083958Y-102641817D01*
X138081866Y-102805444D01*
X138077599Y-103139147D01*
X137726743Y-103139147D01*
X137728463Y-102805444D01*
X137717512Y-102467266D01*
X137693113Y-102203129D01*
X137654665Y-102057224D01*
X137564601Y-101992536D01*
X137380795Y-101972557D01*
X137315508Y-101984461D01*
X137249301Y-102020734D01*
X137206936Y-102106821D01*
X137181592Y-102272594D01*
X137166447Y-102547923D01*
X137154679Y-102962680D01*
X137152142Y-103080711D01*
X136687673Y-103080711D01*
X136670703Y-102001132D01*
X136468611Y-101972557D01*
X136325815Y-101979858D01*
X136194741Y-102057224D01*
X136185459Y-102079216D01*
X136158236Y-102252453D01*
X136138824Y-102548270D01*
X136127061Y-102930490D01*
X136122785Y-103362936D01*
X134895496Y-103362936D01*
X134910278Y-102693122D01*
X135432308Y-101982414D01*
X135602468Y-101756952D01*
X135906721Y-101405930D01*
X136196884Y-101171598D01*
X136515656Y-101031546D01*
X136905736Y-100963369D01*
X137409823Y-100944658D01*
X137513851Y-100944745D01*
X137965635Y-100961087D01*
X138317810Y-101019050D01*
X138607971Y-101139199D01*
X138873709Y-101342102D01*
X139152620Y-101648325D01*
X139482298Y-102078433D01*
X139497779Y-102099417D01*
X139746463Y-102429120D01*
X139966276Y-102707713D01*
X140133891Y-102906405D01*
X140225983Y-102996403D01*
X140321373Y-103009567D01*
X140480925Y-102920147D01*
X140487508Y-102913367D01*
X140537307Y-102839323D01*
X140571824Y-102723450D01*
X140577136Y-102677190D01*
X143575663Y-102677190D01*
X143617104Y-102932325D01*
X143780680Y-103226056D01*
X143902348Y-103424485D01*
X144076017Y-103834124D01*
X144113803Y-103970069D01*
X144203714Y-104293542D01*
X144261939Y-104729327D01*
X144230420Y-105018897D01*
X144049936Y-105442246D01*
X143965568Y-105589858D01*
X143864474Y-105780386D01*
X143825036Y-105875707D01*
X143854490Y-105911643D01*
X144010251Y-106021224D01*
X144278670Y-106183884D01*
X144635682Y-106386383D01*
X145057218Y-106615478D01*
X145519215Y-106857932D01*
X145997605Y-107100503D01*
X146468323Y-107329950D01*
X147285105Y-107704872D01*
X148286560Y-108117824D01*
X149217442Y-108442350D01*
X150110941Y-108690851D01*
X150561582Y-108784497D01*
X151227543Y-108871099D01*
X151861898Y-108896359D01*
X152422983Y-108859251D01*
X152869133Y-108758749D01*
X153091925Y-108660617D01*
X153488476Y-108382535D01*
X153800723Y-108025204D01*
X153986211Y-107631465D01*
X154014656Y-107504694D01*
X154054157Y-107027498D01*
X154022753Y-106463308D01*
X153924965Y-105860488D01*
X153765311Y-105267402D01*
X153676597Y-105004487D01*
X153585937Y-104772356D01*
X153506600Y-104646113D01*
X153416554Y-104593801D01*
X153293766Y-104583465D01*
X153271274Y-104583944D01*
X153015157Y-104624521D01*
X152744310Y-104710465D01*
X152686527Y-104734320D01*
X152497297Y-104807849D01*
X152401624Y-104837465D01*
X152389742Y-104772816D01*
X152394664Y-104581676D01*
X152417022Y-104308298D01*
X152428070Y-103812415D01*
X152340010Y-103355798D01*
X152288306Y-103187305D01*
X152228873Y-102964230D01*
X152229390Y-102855802D01*
X152295685Y-102831075D01*
X152433590Y-102859100D01*
X152660144Y-102915962D01*
X152460714Y-102585547D01*
X152276110Y-102287417D01*
X151760868Y-101511341D01*
X151165096Y-100677288D01*
X150519236Y-99825878D01*
X149853730Y-98997730D01*
X149199021Y-98233465D01*
X149037606Y-98052315D01*
X148826137Y-97825295D01*
X148654123Y-97672776D01*
X148474987Y-97562475D01*
X148242152Y-97462111D01*
X147909041Y-97339402D01*
X147565992Y-97228286D01*
X147073188Y-97134573D01*
X146692701Y-97162100D01*
X146420163Y-97311511D01*
X146251202Y-97583450D01*
X146239485Y-97611798D01*
X146164420Y-97688234D01*
X146009397Y-97719301D01*
X145730512Y-97716193D01*
X145715173Y-97715503D01*
X145416791Y-97718179D01*
X145215625Y-97769363D01*
X145045232Y-97885466D01*
X145022350Y-97905816D01*
X144881982Y-98087084D01*
X144875659Y-98275222D01*
X144886111Y-98320273D01*
X144930628Y-98560288D01*
X144971548Y-98839969D01*
X144985141Y-98931226D01*
X145038489Y-99157701D01*
X145098608Y-99286903D01*
X145147262Y-99348716D01*
X145167283Y-99462955D01*
X145103113Y-99616779D01*
X144941945Y-99835924D01*
X144670970Y-100146123D01*
X144579433Y-100249799D01*
X144356248Y-100526712D01*
X144189736Y-100768089D01*
X144110564Y-100930977D01*
X144054430Y-101106213D01*
X143938602Y-101347117D01*
X143896876Y-101434543D01*
X143823181Y-101686894D01*
X143775011Y-101982117D01*
X143753846Y-102147812D01*
X143704896Y-102379779D01*
X143651373Y-102504898D01*
X143575663Y-102677190D01*
X140577136Y-102677190D01*
X140592858Y-102540271D01*
X140602209Y-102264308D01*
X140601674Y-101870083D01*
X140593054Y-101332120D01*
X140591021Y-101230700D01*
X140575411Y-100668204D01*
X140549466Y-100238777D01*
X140504903Y-99911033D01*
X140433442Y-99653590D01*
X140326803Y-99435062D01*
X140176704Y-99224066D01*
X139974864Y-98989217D01*
X139965751Y-98979025D01*
X139843108Y-98830148D01*
X139762457Y-98685869D01*
X139711389Y-98502747D01*
X139677495Y-98237343D01*
X139648367Y-97846217D01*
X139580477Y-97157573D01*
X139332440Y-95874459D01*
X138923781Y-94585834D01*
X138351308Y-93280465D01*
X138161970Y-92906964D01*
X137975948Y-92569945D01*
X137823739Y-92346985D01*
X137686194Y-92215585D01*
X137544163Y-92153245D01*
X137378496Y-92137465D01*
X137344968Y-92138810D01*
X137175351Y-92192963D01*
X137003108Y-92338734D01*
X136815148Y-92593260D01*
X136598382Y-92973674D01*
X136339718Y-93497110D01*
X136215075Y-93769302D01*
X135705883Y-95123706D01*
X135347133Y-96546084D01*
X135142904Y-98021025D01*
X135107237Y-98363399D01*
X135055698Y-98616777D01*
X134974774Y-98801118D01*
X134848290Y-98968435D01*
X134801500Y-99022736D01*
X134635000Y-99231291D01*
X134525229Y-99391622D01*
X134493801Y-99436590D01*
X134428658Y-99460439D01*
X134321953Y-99411597D01*
X134146708Y-99275323D01*
X133875944Y-99036878D01*
X133352089Y-98557029D01*
X132805604Y-98028344D01*
X132395926Y-97593228D01*
X132121652Y-97250168D01*
X131981376Y-96997654D01*
X131965516Y-96954636D01*
X131842489Y-96677779D01*
X131711839Y-96450301D01*
X131596272Y-96249845D01*
X131505132Y-96016337D01*
X131495657Y-95987126D01*
X131395305Y-95797846D01*
X131221222Y-95539631D01*
X131004508Y-95259501D01*
X130787704Y-94992483D01*
X130433365Y-94541402D01*
X130058431Y-94050169D01*
X129688361Y-93553114D01*
X129348612Y-93084564D01*
X129064642Y-92678850D01*
X128861908Y-92370298D01*
X128705337Y-92131373D01*
X128544388Y-91959778D01*
X128366552Y-91896398D01*
X128125421Y-91927026D01*
X127774586Y-92037457D01*
X127345135Y-92185921D01*
X127382112Y-91547172D01*
X127391783Y-91215103D01*
X127363601Y-90861997D01*
X127282396Y-90581271D01*
X127273871Y-90560879D01*
X127181441Y-90330544D01*
X127165351Y-90221772D01*
X127238156Y-90201149D01*
X127412414Y-90235257D01*
X127568917Y-90263268D01*
X127638648Y-90239612D01*
X127610908Y-90136151D01*
X127454537Y-89748592D01*
X127263381Y-89202399D01*
X127100795Y-88657746D01*
X126981530Y-88165079D01*
X126920339Y-87774839D01*
X126906454Y-87496654D01*
X126913604Y-87415785D01*
X127134060Y-87415785D01*
X127197369Y-88094103D01*
X127374213Y-88844086D01*
X127662825Y-89648617D01*
X127765087Y-89890329D01*
X127870141Y-90106680D01*
X127961229Y-90221477D01*
X128066639Y-90266817D01*
X128214656Y-90274798D01*
X128235748Y-90274486D01*
X128524232Y-90234143D01*
X128812422Y-90146687D01*
X128875855Y-90120852D01*
X129057166Y-90055910D01*
X129140694Y-90040853D01*
X129142266Y-90083617D01*
X129120211Y-90252852D01*
X129075198Y-90502291D01*
X129052185Y-90629990D01*
X129031879Y-90890500D01*
X129064827Y-91153682D01*
X129157367Y-91496184D01*
X129326692Y-92050918D01*
X129112569Y-91997177D01*
X129057175Y-91984327D01*
X128949365Y-91983313D01*
X128964735Y-92061617D01*
X129019922Y-92156400D01*
X129214285Y-92461264D01*
X129465294Y-92827129D01*
X129755829Y-93231830D01*
X130068769Y-93653199D01*
X130386996Y-94069072D01*
X130693390Y-94457280D01*
X130970831Y-94795659D01*
X131202199Y-95062042D01*
X131370374Y-95234263D01*
X131458238Y-95290155D01*
X131538501Y-95291844D01*
X131710156Y-95350759D01*
X131801267Y-95388104D01*
X132070247Y-95459950D01*
X132491181Y-95544462D01*
X133072369Y-95643423D01*
X133230837Y-95674278D01*
X133454304Y-95732378D01*
X133504706Y-95738587D01*
X133660388Y-95690931D01*
X133826203Y-95581637D01*
X133962649Y-95446740D01*
X134030222Y-95322272D01*
X133989419Y-95244266D01*
X133986295Y-95179838D01*
X134102820Y-95017398D01*
X134337060Y-94767570D01*
X134680728Y-94439131D01*
X135125536Y-94040859D01*
X135281279Y-93857782D01*
X135358369Y-93611311D01*
X135427447Y-93382010D01*
X135654703Y-93105648D01*
X135771152Y-92987181D01*
X135911648Y-92771720D01*
X135951036Y-92536785D01*
X135956339Y-92408625D01*
X136019057Y-92070025D01*
X136136581Y-91792521D01*
X136288869Y-91629911D01*
X136395389Y-91532054D01*
X136492555Y-91338108D01*
X136522277Y-91248946D01*
X136619709Y-91011614D01*
X136762143Y-90694425D01*
X136930404Y-90341042D01*
X137019226Y-90158601D01*
X137210641Y-89755960D01*
X137346211Y-89455804D01*
X137420861Y-89270324D01*
X137429516Y-89211710D01*
X137367101Y-89292153D01*
X137245511Y-89463146D01*
X137084696Y-89667926D01*
X136906023Y-89883344D01*
X136804624Y-89576102D01*
X136778552Y-89489783D01*
X136746716Y-89223554D01*
X136806199Y-88925162D01*
X136822637Y-88871384D01*
X136901255Y-88679522D01*
X137007122Y-88598280D01*
X137192105Y-88581465D01*
X137219372Y-88581139D01*
X137400809Y-88558529D01*
X137475036Y-88511238D01*
X137474645Y-88508949D01*
X137395601Y-88437287D01*
X137198764Y-88303276D01*
X136912423Y-88125244D01*
X136564869Y-87921522D01*
X135790916Y-87495922D01*
X134719328Y-86958756D01*
X133670856Y-86491688D01*
X132661186Y-86099693D01*
X131705999Y-85787747D01*
X130820981Y-85560828D01*
X130021815Y-85423910D01*
X129324185Y-85381971D01*
X128743774Y-85439986D01*
X128529068Y-85494274D01*
X128010367Y-85711467D01*
X127601378Y-86018124D01*
X127327237Y-86397260D01*
X127186051Y-86826248D01*
X127134060Y-87415785D01*
X126913604Y-87415785D01*
X126963908Y-86846838D01*
X127151767Y-86298975D01*
X127464732Y-85855567D01*
X127897508Y-85519119D01*
X128444796Y-85292132D01*
X129101299Y-85177112D01*
X129861721Y-85176560D01*
X130720764Y-85292981D01*
X131673131Y-85528877D01*
X132466138Y-85789645D01*
X133440736Y-86162675D01*
X134459945Y-86600323D01*
X135476997Y-87081379D01*
X136445125Y-87584630D01*
X137317561Y-88088866D01*
X137509476Y-88195379D01*
X137870390Y-88363660D01*
X138226536Y-88499967D01*
X138263054Y-88511238D01*
X138505737Y-88586140D01*
G37*
%TD*%
M02*
