%TF.GenerationSoftware,KiCad,Pcbnew,8.0.7*%
%TF.CreationDate,2025-02-15T14:18:58+03:00*%
%TF.ProjectId,IoT Edge Device V1,496f5420-4564-4676-9520-446576696365,rev?*%
%TF.SameCoordinates,Original*%
%TF.FileFunction,Copper,L4,Bot*%
%TF.FilePolarity,Positive*%
%FSLAX46Y46*%
G04 Gerber Fmt 4.6, Leading zero omitted, Abs format (unit mm)*
G04 Created by KiCad (PCBNEW 8.0.7) date 2025-02-15 14:18:58*
%MOMM*%
%LPD*%
G01*
G04 APERTURE LIST*
G04 Aperture macros list*
%AMRoundRect*
0 Rectangle with rounded corners*
0 $1 Rounding radius*
0 $2 $3 $4 $5 $6 $7 $8 $9 X,Y pos of 4 corners*
0 Add a 4 corners polygon primitive as box body*
4,1,4,$2,$3,$4,$5,$6,$7,$8,$9,$2,$3,0*
0 Add four circle primitives for the rounded corners*
1,1,$1+$1,$2,$3*
1,1,$1+$1,$4,$5*
1,1,$1+$1,$6,$7*
1,1,$1+$1,$8,$9*
0 Add four rect primitives between the rounded corners*
20,1,$1+$1,$2,$3,$4,$5,0*
20,1,$1+$1,$4,$5,$6,$7,0*
20,1,$1+$1,$6,$7,$8,$9,0*
20,1,$1+$1,$8,$9,$2,$3,0*%
G04 Aperture macros list end*
%TA.AperFunction,ComponentPad*%
%ADD10RoundRect,0.250000X0.725000X-0.600000X0.725000X0.600000X-0.725000X0.600000X-0.725000X-0.600000X0*%
%TD*%
%TA.AperFunction,ComponentPad*%
%ADD11O,1.950000X1.700000*%
%TD*%
%TA.AperFunction,ComponentPad*%
%ADD12R,1.050000X1.500000*%
%TD*%
%TA.AperFunction,ComponentPad*%
%ADD13O,1.050000X1.500000*%
%TD*%
%TA.AperFunction,ComponentPad*%
%ADD14R,2.600000X2.600000*%
%TD*%
%TA.AperFunction,ComponentPad*%
%ADD15C,2.600000*%
%TD*%
%TA.AperFunction,ComponentPad*%
%ADD16O,1.800000X1.150000*%
%TD*%
%TA.AperFunction,ComponentPad*%
%ADD17O,2.000000X1.450000*%
%TD*%
%TA.AperFunction,ComponentPad*%
%ADD18RoundRect,0.250000X-0.600000X-0.750000X0.600000X-0.750000X0.600000X0.750000X-0.600000X0.750000X0*%
%TD*%
%TA.AperFunction,ComponentPad*%
%ADD19O,1.700000X2.000000*%
%TD*%
%TA.AperFunction,ComponentPad*%
%ADD20C,2.000000*%
%TD*%
%TA.AperFunction,ComponentPad*%
%ADD21R,1.905000X2.000000*%
%TD*%
%TA.AperFunction,ComponentPad*%
%ADD22O,1.905000X2.000000*%
%TD*%
%TA.AperFunction,ComponentPad*%
%ADD23RoundRect,0.250000X-0.725000X0.600000X-0.725000X-0.600000X0.725000X-0.600000X0.725000X0.600000X0*%
%TD*%
%TA.AperFunction,ComponentPad*%
%ADD24C,3.000000*%
%TD*%
%TA.AperFunction,ComponentPad*%
%ADD25C,2.500000*%
%TD*%
%TA.AperFunction,ComponentPad*%
%ADD26RoundRect,0.250000X-0.600000X-0.725000X0.600000X-0.725000X0.600000X0.725000X-0.600000X0.725000X0*%
%TD*%
%TA.AperFunction,ComponentPad*%
%ADD27O,1.700000X1.950000*%
%TD*%
%TA.AperFunction,ComponentPad*%
%ADD28R,1.700000X1.700000*%
%TD*%
%TA.AperFunction,ComponentPad*%
%ADD29O,1.700000X1.700000*%
%TD*%
%TA.AperFunction,ComponentPad*%
%ADD30R,1.500000X1.500000*%
%TD*%
%TA.AperFunction,ComponentPad*%
%ADD31C,1.500000*%
%TD*%
%TA.AperFunction,ViaPad*%
%ADD32C,0.600000*%
%TD*%
%TA.AperFunction,Conductor*%
%ADD33C,0.300000*%
%TD*%
%TA.AperFunction,Conductor*%
%ADD34C,0.250000*%
%TD*%
G04 APERTURE END LIST*
D10*
%TO.P,J7,1,Pin_1*%
%TO.N,+3.3VREG*%
X179832000Y-103338000D03*
D11*
%TO.P,J7,2,Pin_2*%
%TO.N,TXD1*%
X179832000Y-100838000D03*
%TO.P,J7,3,Pin_3*%
%TO.N,RXD1*%
X179832000Y-98338000D03*
%TO.P,J7,4,Pin_4*%
%TO.N,GND*%
X179832000Y-95838000D03*
%TD*%
D12*
%TO.P,Q1,1,E*%
%TO.N,GND*%
X136614000Y-89534000D03*
D13*
%TO.P,Q1,2,B*%
%TO.N,Net-(Q1-B)*%
X137884000Y-89534000D03*
%TO.P,Q1,3,C*%
%TO.N,Net-(D14-A)*%
X139154000Y-89534000D03*
%TD*%
D14*
%TO.P,J16,1,Pin_1*%
%TO.N,/NC*%
X184709000Y-67992000D03*
D15*
%TO.P,J16,2,Pin_2*%
%TO.N,/NO*%
X184709000Y-62992000D03*
%TO.P,J16,3,Pin_3*%
%TO.N,/COM*%
X184709000Y-57992000D03*
%TD*%
D16*
%TO.P,J1,6,Shield*%
%TO.N,unconnected-(J1-Shield-Pad6)_3*%
X96775000Y-60460000D03*
D17*
%TO.N,unconnected-(J1-Shield-Pad6)_2*%
X100575000Y-60610000D03*
%TO.N,unconnected-(J1-Shield-Pad6)*%
X100575000Y-68060000D03*
D16*
%TO.N,unconnected-(J1-Shield-Pad6)_1*%
X96775000Y-68210000D03*
%TD*%
D18*
%TO.P,J13,1,Pin_1*%
%TO.N,Net-(J13-Pin_1)*%
X169746000Y-129195000D03*
D19*
%TO.P,J13,2,Pin_2*%
%TO.N,GND*%
X172246000Y-129195000D03*
%TD*%
D18*
%TO.P,J11,1,Pin_1*%
%TO.N,Net-(J11-Pin_1)*%
X146324000Y-129011000D03*
D19*
%TO.P,J11,2,Pin_2*%
%TO.N,GND*%
X148824000Y-129011000D03*
%TD*%
D20*
%TO.P,SW1,1,1*%
%TO.N,GND*%
X160603000Y-73370000D03*
X154103000Y-73370000D03*
%TO.P,SW1,2,2*%
%TO.N,BOOT*%
X160603000Y-68870000D03*
X154103000Y-68870000D03*
%TD*%
D10*
%TO.P,J2,1,Pin_1*%
%TO.N,+3.3VREG*%
X180086000Y-87804000D03*
D11*
%TO.P,J2,2,Pin_2*%
%TO.N,CS*%
X180086000Y-85304000D03*
%TO.P,J2,3,Pin_3*%
%TO.N,SCLK*%
X180086000Y-82804000D03*
%TO.P,J2,4,Pin_4*%
%TO.N,MOSI*%
X180086000Y-80304000D03*
%TO.P,J2,5,Pin_5*%
%TO.N,MISO*%
X180086000Y-77804000D03*
%TO.P,J2,6,Pin_6*%
%TO.N,GND*%
X180086000Y-75304000D03*
%TD*%
D21*
%TO.P,U4,1,VI*%
%TO.N,Net-(J13-Pin_1)*%
X168656000Y-122555000D03*
D22*
%TO.P,U4,2,GND*%
%TO.N,GND*%
X171196000Y-122555000D03*
%TO.P,U4,3,VO*%
%TO.N,Net-(U4-VO)*%
X173736000Y-122555000D03*
%TD*%
D23*
%TO.P,J8,1,Pin_1*%
%TO.N,+3.3VREG*%
X106066000Y-118678000D03*
D11*
%TO.P,J8,2,Pin_2*%
%TO.N,GND*%
X106066000Y-121178000D03*
%TO.P,J8,3,Pin_3*%
%TO.N,SDA*%
X106066000Y-123678000D03*
%TO.P,J8,4,Pin_4*%
%TO.N,SCL*%
X106066000Y-126178000D03*
%TD*%
D24*
%TO.P,K1,1*%
%TO.N,/COM*%
X144535000Y-87630000D03*
D25*
%TO.P,K1,2*%
%TO.N,Net-(D14-A)*%
X146485000Y-93680000D03*
D24*
%TO.P,K1,3*%
%TO.N,/NO*%
X158685000Y-93680000D03*
%TO.P,K1,4*%
%TO.N,/NC*%
X158735000Y-81630000D03*
D25*
%TO.P,K1,5*%
%TO.N,VOUT_IP*%
X146485000Y-81680000D03*
%TD*%
D20*
%TO.P,SW2,1,1*%
%TO.N,GND*%
X110287500Y-49033500D03*
X116787500Y-49033500D03*
%TO.P,SW2,2,2*%
%TO.N,CHIP_PU*%
X110287500Y-53533500D03*
X116787500Y-53533500D03*
%TD*%
D23*
%TO.P,J4,1,Pin_1*%
%TO.N,+3.3VREG*%
X105999500Y-87212500D03*
D11*
%TO.P,J4,2,Pin_2*%
%TO.N,TXD2*%
X105999500Y-89712500D03*
%TO.P,J4,3,Pin_3*%
%TO.N,RXD2*%
X105999500Y-92212500D03*
%TO.P,J4,4,Pin_4*%
%TO.N,GND*%
X105999500Y-94712500D03*
%TD*%
D21*
%TO.P,U2,1,VI*%
%TO.N,Net-(J11-Pin_1)*%
X144729000Y-122528000D03*
D22*
%TO.P,U2,2,GND*%
%TO.N,GND*%
X147269000Y-122528000D03*
%TO.P,U2,3,VO*%
%TO.N,Net-(U2-VO)*%
X149809000Y-122528000D03*
%TD*%
D10*
%TO.P,J6,1,Pin_1*%
%TO.N,+3.3VREG*%
X179864000Y-115970000D03*
D11*
%TO.P,J6,2,Pin_2*%
%TO.N,ADC1*%
X179864000Y-113470000D03*
%TO.P,J6,3,Pin_3*%
%TO.N,GND*%
X179864000Y-110970000D03*
%TD*%
D21*
%TO.P,U3,1,VI*%
%TO.N,Net-(J12-Pin_1)*%
X156658000Y-122469000D03*
D22*
%TO.P,U3,2,GND*%
%TO.N,GND*%
X159198000Y-122469000D03*
%TO.P,U3,3,VO*%
%TO.N,Net-(U3-VO)*%
X161738000Y-122469000D03*
%TD*%
D18*
%TO.P,J12,1,Pin_1*%
%TO.N,Net-(J12-Pin_1)*%
X158028000Y-129159000D03*
D19*
%TO.P,J12,2,Pin_2*%
%TO.N,GND*%
X160528000Y-129159000D03*
%TD*%
D23*
%TO.P,J10,1,Pin_1*%
%TO.N,+3.3VREG*%
X106049500Y-73587500D03*
D11*
%TO.P,J10,2,Pin_2*%
%TO.N,ADC2*%
X106049500Y-76087500D03*
%TO.P,J10,3,Pin_3*%
%TO.N,GND*%
X106049500Y-78587500D03*
%TD*%
D26*
%TO.P,J5,1,Pin_1*%
%TO.N,+3.3VREG*%
X115182000Y-128905000D03*
D27*
%TO.P,J5,2,Pin_2*%
%TO.N,GND*%
X117682000Y-128905000D03*
%TO.P,J5,3,Pin_3*%
%TO.N,SDA*%
X120182000Y-128905000D03*
%TO.P,J5,4,Pin_4*%
%TO.N,SCL*%
X122682000Y-128905000D03*
%TD*%
D28*
%TO.P,J14,1,Pin_1*%
%TO.N,GND*%
X186944000Y-127000000D03*
D29*
%TO.P,J14,2,Pin_2*%
%TO.N,BAT*%
X186944000Y-124460000D03*
%TD*%
D23*
%TO.P,J3,1,Pin_1*%
%TO.N,+3.3VREG*%
X106049500Y-103362500D03*
D11*
%TO.P,J3,2,Pin_2*%
%TO.N,GND*%
X106049500Y-105862500D03*
%TO.P,J3,3,Pin_3*%
%TO.N,SDA*%
X106049500Y-108362500D03*
%TO.P,J3,4,Pin_4*%
%TO.N,SCL*%
X106049500Y-110862500D03*
%TD*%
D26*
%TO.P,J9,1,Pin_1*%
%TO.N,+3.3VREG*%
X130422000Y-128905000D03*
D27*
%TO.P,J9,2,Pin_2*%
%TO.N,GND*%
X132922000Y-128905000D03*
%TO.P,J9,3,Pin_3*%
%TO.N,SDA*%
X135422000Y-128905000D03*
%TO.P,J9,4,Pin_4*%
%TO.N,SCL*%
X137922000Y-128905000D03*
%TD*%
D20*
%TO.P,SW3,1,1*%
%TO.N,Net-(R9-Pad2)*%
X143562000Y-102906000D03*
X150062000Y-102906000D03*
%TO.P,SW3,2,2*%
%TO.N,GND*%
X143562000Y-107406000D03*
X150062000Y-107406000D03*
%TD*%
D30*
%TO.P,U7,1,VDD*%
%TO.N,+3.3VREG*%
X159990500Y-102967500D03*
D31*
%TO.P,U7,2,DATA*%
%TO.N,DHT_DATA*%
X159990500Y-105507500D03*
%TO.P,U7,3,NC*%
%TO.N,unconnected-(U7-NC-Pad3)*%
X159990500Y-108047500D03*
%TO.P,U7,4,GND*%
%TO.N,GND*%
X159990500Y-110587500D03*
%TD*%
D32*
%TO.N,+3.3VREG*%
X159900000Y-49325000D03*
X151250000Y-70825000D03*
X106450000Y-51250000D03*
X139725000Y-113575000D03*
X112950000Y-106900000D03*
X115200000Y-125475000D03*
X160650000Y-53900000D03*
X110625000Y-73750000D03*
X131775000Y-121175000D03*
X151375000Y-81975000D03*
X173625000Y-103375000D03*
X169525000Y-102000000D03*
X112350000Y-81900000D03*
X110575000Y-68200000D03*
X129225000Y-85350000D03*
X117800000Y-82025000D03*
X110750000Y-87250000D03*
X110175000Y-104100000D03*
X121875000Y-49750000D03*
X169525000Y-97475000D03*
X116350000Y-101850000D03*
X110975000Y-93375000D03*
X171425000Y-103400000D03*
X130425000Y-125650000D03*
X110325000Y-118675000D03*
%TO.N,GND*%
X139954000Y-55245000D03*
X121920000Y-89662000D03*
X134874000Y-55245000D03*
X104394000Y-51308000D03*
X134493000Y-89408000D03*
X128270000Y-47625000D03*
X108077000Y-48514000D03*
X159639000Y-125349000D03*
X160655000Y-125984000D03*
X134948000Y-76394000D03*
X136017000Y-52705000D03*
X122400000Y-93000000D03*
X120650000Y-48895000D03*
X120269000Y-86106000D03*
X123200000Y-93000000D03*
X184531000Y-127000000D03*
X149987000Y-109855000D03*
X126492000Y-47625000D03*
X124482000Y-81820000D03*
X123317000Y-59436000D03*
X135202000Y-72838000D03*
X122809000Y-105664000D03*
X139774000Y-71949000D03*
X102489000Y-65659000D03*
X171069000Y-118745000D03*
X145161000Y-70485000D03*
X118184000Y-71187000D03*
X109347000Y-121158000D03*
X124714000Y-46990000D03*
X134112000Y-117602000D03*
X136017000Y-57785000D03*
X138811000Y-52705000D03*
X122375000Y-72203000D03*
X109347000Y-94742000D03*
X117856000Y-125603000D03*
X138684000Y-85471000D03*
X149225000Y-47625000D03*
X172974000Y-125984000D03*
X166116000Y-118364000D03*
X137414000Y-52705000D03*
X154051000Y-75438000D03*
X104013000Y-62738000D03*
X172085000Y-125222000D03*
X137869000Y-71187000D03*
X142875000Y-118237000D03*
X122936000Y-103632000D03*
X123317000Y-58420000D03*
X121793000Y-54864000D03*
X122301000Y-86106000D03*
X109347000Y-105918000D03*
X125730000Y-84328000D03*
X137541000Y-57912000D03*
X176657000Y-75311000D03*
X132969000Y-125603000D03*
X121920000Y-88900000D03*
X163576000Y-110617000D03*
X160655000Y-75565000D03*
X125095000Y-92202000D03*
X164338000Y-70838000D03*
X161417000Y-51689000D03*
X118745000Y-49022000D03*
X154629000Y-117790000D03*
X147701000Y-125095000D03*
X128775000Y-76925000D03*
X176530000Y-110998000D03*
X109220000Y-78613000D03*
X176403000Y-95885000D03*
X133985000Y-103632000D03*
X175641000Y-48387000D03*
X143510000Y-109728000D03*
X148971000Y-125857000D03*
X138938000Y-57785000D03*
%TO.N,5VUSB*%
X115062000Y-88773000D03*
X123825000Y-88265000D03*
X103124000Y-62992000D03*
X105100000Y-65650000D03*
%TO.N,VIN_IP*%
X128025000Y-87400000D03*
X131975000Y-95300000D03*
X151025000Y-115225000D03*
X128050000Y-69700000D03*
%TO.N,VOUT_IP*%
X146450000Y-78625000D03*
X137825000Y-69525000D03*
%TO.N,BAT*%
X150375000Y-76975000D03*
X178054000Y-122428000D03*
%TO.N,Net-(D14-A)*%
X139065000Y-87630000D03*
X136144000Y-85979000D03*
%TO.N,SCLK*%
X165608000Y-70925000D03*
X144907000Y-61214000D03*
X170942000Y-81661000D03*
%TO.N,MISO*%
X147955000Y-68707000D03*
X175133000Y-76708000D03*
%TO.N,MOSI*%
X173863000Y-78740000D03*
X149225000Y-65278000D03*
%TO.N,CS*%
X151376880Y-67063120D03*
X172847000Y-83058000D03*
%TO.N,SDA*%
X141025000Y-60175000D03*
X132850000Y-124450000D03*
X129450000Y-78675000D03*
X111175000Y-111075000D03*
X112325000Y-124750000D03*
X121107058Y-84257058D03*
X110775000Y-123950000D03*
X110050000Y-109225000D03*
X120775000Y-125450000D03*
X115100000Y-92700000D03*
%TO.N,SCL*%
X110450000Y-81700000D03*
X112050000Y-97175000D03*
X133200000Y-123200000D03*
X135675000Y-123200000D03*
X140975000Y-59150000D03*
X126700000Y-77400000D03*
%TO.N,TXD2*%
X112200000Y-88200000D03*
X124841000Y-62357000D03*
%TO.N,RXD2*%
X126111000Y-62357000D03*
X113030000Y-90551000D03*
%TO.N,ADC1*%
X158000000Y-59200000D03*
X163075000Y-67850000D03*
X172375000Y-101950000D03*
X152125000Y-50350000D03*
%TO.N,TXD1*%
X156250000Y-69925000D03*
X154700000Y-60400000D03*
X168200000Y-99825000D03*
X157375000Y-76700000D03*
X156250000Y-62500000D03*
X150300000Y-51975000D03*
%TO.N,RXD1*%
X155625000Y-59925000D03*
X157700000Y-68175000D03*
X154950000Y-85525000D03*
X151300000Y-54200000D03*
%TO.N,ADC2*%
X127381000Y-51943000D03*
X113919000Y-65151000D03*
%TO.N,MOSI_SD*%
X155702000Y-56642000D03*
X157861000Y-55118000D03*
%TO.N,SCLK_SD*%
X158115000Y-52832000D03*
X155448000Y-54991000D03*
%TO.N,CS_SD*%
X144907000Y-62865000D03*
X157861000Y-57404000D03*
%TO.N,MISO_SD*%
X159258000Y-51816000D03*
X154721000Y-54264000D03*
%TO.N,RELAY*%
X140375000Y-78050000D03*
X133100000Y-55150000D03*
X135850000Y-83750000D03*
%TO.N,/NO*%
X168529000Y-74549000D03*
X168529000Y-77724000D03*
%TO.N,Net-(R9-Pad2)*%
X143600000Y-98950000D03*
X140100000Y-95425000D03*
X132650000Y-81075000D03*
X134675000Y-94450000D03*
X135225000Y-81750000D03*
%TO.N,DHT_DATA*%
X127250000Y-62500000D03*
X152750000Y-99750000D03*
X133750000Y-98750000D03*
X123750000Y-65500000D03*
X116750000Y-70250000D03*
%TO.N,IRQ1*%
X117856000Y-111633000D03*
X129921000Y-67056000D03*
%TO.N,IRQ3*%
X131191000Y-98298000D03*
X143764000Y-54737000D03*
%TO.N,IRQ2*%
X143383000Y-57150000D03*
X130048000Y-93218000D03*
%TO.N,RESET*%
X140462000Y-68834000D03*
X128270000Y-93091000D03*
%TO.N,MISO_LORA*%
X144399000Y-71628000D03*
X140208000Y-97536000D03*
%TO.N,CS_LORA*%
X132588000Y-100203000D03*
X134493000Y-67056000D03*
%TO.N,SCLK_LORA*%
X142621000Y-64008000D03*
X149098000Y-97663000D03*
%TO.N,MOSI_LORA*%
X137795000Y-77343000D03*
X133477000Y-94361000D03*
X137033000Y-67310000D03*
X133477000Y-81788000D03*
%TD*%
D33*
%TO.N,Net-(D14-A)*%
X139065000Y-86868000D02*
X139065000Y-87630000D01*
X136286000Y-86121000D02*
X138318000Y-86121000D01*
X136144000Y-85979000D02*
X136286000Y-86121000D01*
X138318000Y-86121000D02*
X139065000Y-86868000D01*
D34*
%TO.N,SCLK*%
X165608000Y-70925000D02*
X165608000Y-76327000D01*
X165608000Y-76327000D02*
X170942000Y-81661000D01*
%TO.N,MOSI*%
X149225000Y-65278000D02*
X164719000Y-65278000D01*
X164719000Y-65278000D02*
X173609000Y-74168000D01*
X173863000Y-74422000D02*
X173863000Y-78740000D01*
X173609000Y-74168000D02*
X173863000Y-74422000D01*
%TO.N,CS*%
X172847000Y-76454000D02*
X172847000Y-83058000D01*
X163456120Y-67063120D02*
X171704000Y-75311000D01*
X171704000Y-75311000D02*
X172847000Y-76454000D01*
X151376880Y-67063120D02*
X163456120Y-67063120D01*
%TO.N,SDA*%
X117450000Y-88200000D02*
X118250000Y-87400000D01*
X120775000Y-125450000D02*
X121300000Y-124925000D01*
D33*
X137925000Y-60175000D02*
X141025000Y-60175000D01*
D34*
X121300000Y-124925000D02*
X132375000Y-124925000D01*
X116600000Y-88200000D02*
X117450000Y-88200000D01*
D33*
X129450000Y-69400000D02*
X130800000Y-68050000D01*
X129450000Y-78675000D02*
X129450000Y-69400000D01*
D34*
X120125000Y-87400000D02*
X121125000Y-86400000D01*
X121125000Y-84275000D02*
X121107058Y-84257058D01*
X115100000Y-92700000D02*
X116000000Y-91800000D01*
X121125000Y-86400000D02*
X121125000Y-84275000D01*
D33*
X133850000Y-64250000D02*
X137925000Y-60175000D01*
X132250000Y-68050000D02*
X133850000Y-66450000D01*
D34*
X132375000Y-124925000D02*
X132850000Y-124450000D01*
X111175000Y-110350000D02*
X110050000Y-109225000D01*
X116000000Y-88800000D02*
X116600000Y-88200000D01*
X111175000Y-111075000D02*
X111175000Y-110350000D01*
X111575000Y-124750000D02*
X110775000Y-123950000D01*
D33*
X130800000Y-68050000D02*
X132250000Y-68050000D01*
X133850000Y-66450000D02*
X133850000Y-64250000D01*
D34*
X116000000Y-91800000D02*
X116000000Y-88800000D01*
X112325000Y-124750000D02*
X111575000Y-124750000D01*
X118250000Y-87400000D02*
X120125000Y-87400000D01*
%TO.N,SCL*%
X136575000Y-59150000D02*
X140975000Y-59150000D01*
X109800000Y-88600000D02*
X109800000Y-82875000D01*
X127200000Y-68525000D02*
X136575000Y-59150000D01*
X133200000Y-123200000D02*
X135675000Y-123200000D01*
X109800000Y-82350000D02*
X110450000Y-81700000D01*
X112050000Y-97175000D02*
X112050000Y-92475000D01*
X126700000Y-77400000D02*
X127200000Y-76900000D01*
X127200000Y-76900000D02*
X127200000Y-68525000D01*
X112050000Y-90850000D02*
X109800000Y-88600000D01*
X112050000Y-92475000D02*
X112050000Y-90850000D01*
X109800000Y-82875000D02*
X109800000Y-82350000D01*
%TO.N,TXD2*%
X112200000Y-88200000D02*
X111425000Y-87425000D01*
X118110000Y-73279000D02*
X124841000Y-66548000D01*
X111425000Y-77100000D02*
X115246000Y-73279000D01*
X124841000Y-66548000D02*
X124841000Y-62357000D01*
X111425000Y-87425000D02*
X111425000Y-77100000D01*
X115246000Y-73279000D02*
X118110000Y-73279000D01*
%TO.N,RXD2*%
X126111000Y-62357000D02*
X126111000Y-76835000D01*
X123317000Y-79629000D02*
X116840000Y-79629000D01*
X116840000Y-79629000D02*
X113030000Y-83439000D01*
X126111000Y-76835000D02*
X123317000Y-79629000D01*
X113030000Y-83439000D02*
X113030000Y-90551000D01*
%TO.N,ADC1*%
X163075000Y-75925000D02*
X172375000Y-85225000D01*
X172375000Y-85225000D02*
X172375000Y-101950000D01*
X163075000Y-67850000D02*
X163075000Y-75925000D01*
%TO.N,TXD1*%
X168200000Y-82925000D02*
X163475000Y-78200000D01*
X168200000Y-99825000D02*
X168200000Y-82925000D01*
X163475000Y-78200000D02*
X161975000Y-76700000D01*
X161975000Y-76700000D02*
X157375000Y-76700000D01*
%TO.N,RXD1*%
X154950000Y-85525000D02*
X154950000Y-76950000D01*
X154950000Y-76950000D02*
X156550000Y-75350000D01*
X156550000Y-75350000D02*
X157700000Y-74200000D01*
X157700000Y-74200000D02*
X157700000Y-68175000D01*
%TO.N,ADC2*%
X113919000Y-63881000D02*
X115570000Y-62230000D01*
X123571000Y-62230000D02*
X127381000Y-58420000D01*
X127381000Y-58420000D02*
X127381000Y-51943000D01*
X113919000Y-65151000D02*
X113919000Y-63881000D01*
X115570000Y-62230000D02*
X123571000Y-62230000D01*
D33*
%TO.N,MOSI_SD*%
X155702000Y-56642000D02*
X156337000Y-56642000D01*
X156337000Y-56642000D02*
X157861000Y-55118000D01*
%TO.N,SCLK_SD*%
X155448000Y-54991000D02*
X157607000Y-52832000D01*
X157607000Y-52832000D02*
X158115000Y-52832000D01*
%TO.N,CS_SD*%
X156210000Y-57404000D02*
X157861000Y-57404000D01*
X144907000Y-62865000D02*
X150749000Y-62865000D01*
X150749000Y-62865000D02*
X156210000Y-57404000D01*
%TO.N,MISO_SD*%
X157169000Y-51816000D02*
X159258000Y-51816000D01*
X154721000Y-54264000D02*
X157169000Y-51816000D01*
D34*
%TO.N,RELAY*%
X135850000Y-82575000D02*
X140375000Y-78050000D01*
X135850000Y-83750000D02*
X135850000Y-82575000D01*
%TO.N,/NO*%
X168529000Y-77724000D02*
X168529000Y-74549000D01*
%TO.N,Net-(R9-Pad2)*%
X140100000Y-95450000D02*
X140100000Y-95425000D01*
X143600000Y-98950000D02*
X140100000Y-95450000D01*
X135225000Y-90525000D02*
X134675000Y-91075000D01*
X135225000Y-81750000D02*
X135225000Y-90525000D01*
X134675000Y-91075000D02*
X134675000Y-94450000D01*
D33*
%TO.N,DHT_DATA*%
X134750000Y-99750000D02*
X133750000Y-98750000D01*
X152750000Y-99750000D02*
X134750000Y-99750000D01*
D34*
%TO.N,IRQ3*%
X131191000Y-98298000D02*
X132969000Y-96520000D01*
X137541000Y-96520000D02*
X141859000Y-92202000D01*
X141859000Y-56642000D02*
X143764000Y-54737000D01*
X132969000Y-96520000D02*
X137541000Y-96520000D01*
X141859000Y-92202000D02*
X141859000Y-56642000D01*
%TO.N,RESET*%
X130302000Y-91059000D02*
X130302000Y-80899000D01*
X128270000Y-93091000D02*
X130302000Y-91059000D01*
X140462000Y-76835000D02*
X140462000Y-68834000D01*
X130302000Y-80899000D02*
X130810000Y-80391000D01*
X130810000Y-80391000D02*
X136906000Y-80391000D01*
X136906000Y-80391000D02*
X140462000Y-76835000D01*
%TO.N,CS_LORA*%
X127762000Y-100203000D02*
X126355000Y-98796000D01*
X132588000Y-100203000D02*
X127762000Y-100203000D01*
X132334000Y-78867000D02*
X132334000Y-69215000D01*
X132334000Y-69215000D02*
X134493000Y-67056000D01*
X126355000Y-81417000D02*
X128143000Y-79629000D01*
X126355000Y-98796000D02*
X126355000Y-81417000D01*
X128143000Y-79629000D02*
X131572000Y-79629000D01*
X131572000Y-79629000D02*
X132334000Y-78867000D01*
%TO.N,SCLK_LORA*%
X150114000Y-68072000D02*
X146050000Y-64008000D01*
X146050000Y-64008000D02*
X142621000Y-64008000D01*
X150114000Y-73406000D02*
X150114000Y-68072000D01*
X149098000Y-74422000D02*
X150114000Y-73406000D01*
X149098000Y-97663000D02*
X149098000Y-74422000D01*
%TO.N,MOSI_LORA*%
X138494000Y-68771000D02*
X137033000Y-67310000D01*
X137795000Y-77343000D02*
X138494000Y-76644000D01*
X138494000Y-76644000D02*
X138494000Y-68771000D01*
X133477000Y-94361000D02*
X133477000Y-81788000D01*
%TD*%
M02*
