M48
; DRILL file {KiCad 8.0.7} date 2025-02-15T14:18:49+0300
; FORMAT={-:-/ absolute / metric / decimal}
; #@! TF.CreationDate,2025-02-15T14:18:49+03:00
; #@! TF.GenerationSoftware,Kicad,Pcbnew,8.0.7
; #@! TF.FileFunction,MixedPlating,1,4
FMAT,2
METRIC
; #@! TA.AperFunction,Plated,PTH,ViaDrill
T1C0.300
; #@! TA.AperFunction,Plated,PTH,ComponentDrill
T2C0.550
; #@! TA.AperFunction,Plated,PTH,ComponentDrill
T3C0.750
; #@! TA.AperFunction,Plated,PTH,ComponentDrill
T4C0.800
; #@! TA.AperFunction,Plated,PTH,ComponentDrill
T5C0.850
; #@! TA.AperFunction,Plated,PTH,ComponentDrill
T6C0.950
; #@! TA.AperFunction,Plated,PTH,ComponentDrill
T7C1.000
; #@! TA.AperFunction,Plated,PTH,ComponentDrill
T8C1.100
; #@! TA.AperFunction,Plated,PTH,ComponentDrill
T9C1.300
; #@! TA.AperFunction,NonPlated,NPTH,ComponentDrill
T10C0.800
; #@! TA.AperFunction,NonPlated,NPTH,ComponentDrill
T11C3.200
%
G90
G05
T1
X102.489Y-65.659
X103.124Y-62.992
X104.013Y-62.738
X104.394Y-51.308
X105.1Y-65.65
X106.45Y-51.25
X108.077Y-48.514
X109.22Y-78.613
X109.347Y-94.742
X109.347Y-105.918
X109.347Y-121.158
X110.05Y-109.225
X110.175Y-104.1
X110.325Y-118.675
X110.45Y-81.7
X110.575Y-68.2
X110.625Y-73.75
X110.75Y-87.25
X110.775Y-123.95
X110.975Y-93.375
X111.175Y-111.075
X112.05Y-97.175
X112.2Y-88.2
X112.325Y-124.75
X112.35Y-81.9
X112.95Y-106.9
X113.03Y-90.551
X113.919Y-65.151
X115.062Y-88.773
X115.1Y-92.7
X115.2Y-125.475
X116.35Y-101.85
X116.75Y-70.25
X117.8Y-82.025
X117.856Y-111.633
X117.856Y-125.603
X118.184Y-71.187
X118.745Y-49.022
X120.269Y-86.106
X120.65Y-48.895
X120.775Y-125.45
X121.107Y-84.257
X121.793Y-54.864
X121.875Y-49.75
X121.92Y-88.9
X121.92Y-89.662
X122.301Y-86.106
X122.375Y-72.203
X122.4Y-93.0
X122.809Y-105.664
X122.936Y-103.632
X123.2Y-93.0
X123.317Y-58.42
X123.317Y-59.436
X123.75Y-65.5
X123.825Y-88.265
X124.482Y-81.82
X124.714Y-46.99
X124.841Y-62.357
X125.095Y-92.202
X125.73Y-84.328
X126.111Y-62.357
X126.492Y-47.625
X126.7Y-77.4
X127.25Y-62.5
X127.381Y-51.943
X128.025Y-87.4
X128.05Y-69.7
X128.27Y-47.625
X128.27Y-93.091
X128.775Y-76.925
X129.225Y-85.35
X129.45Y-78.675
X129.921Y-67.056
X130.048Y-93.218
X130.425Y-125.65
X131.191Y-98.298
X131.775Y-121.175
X131.975Y-95.3
X132.588Y-100.203
X132.65Y-81.075
X132.85Y-124.45
X132.969Y-125.603
X133.1Y-55.15
X133.2Y-123.2
X133.477Y-81.788
X133.477Y-94.361
X133.75Y-98.75
X133.985Y-103.632
X134.112Y-117.602
X134.493Y-67.056
X134.493Y-89.408
X134.675Y-94.45
X134.874Y-55.245
X134.948Y-76.394
X135.202Y-72.838
X135.225Y-81.75
X135.675Y-123.2
X135.85Y-83.75
X136.017Y-52.705
X136.017Y-57.785
X136.144Y-85.979
X137.033Y-67.31
X137.414Y-52.705
X137.541Y-57.912
X137.795Y-77.343
X137.825Y-69.525
X137.869Y-71.187
X138.684Y-85.471
X138.811Y-52.705
X138.938Y-57.785
X139.065Y-87.63
X139.725Y-113.575
X139.774Y-71.949
X139.954Y-55.245
X140.1Y-95.425
X140.208Y-97.536
X140.375Y-78.05
X140.462Y-68.834
X140.975Y-59.15
X141.025Y-60.175
X142.621Y-64.008
X142.875Y-118.237
X143.383Y-57.15
X143.51Y-109.728
X143.6Y-98.95
X143.764Y-54.737
X144.399Y-71.628
X144.907Y-61.214
X144.907Y-62.865
X145.161Y-70.485
X146.45Y-78.625
X147.701Y-125.095
X147.955Y-68.707
X148.971Y-125.857
X149.098Y-97.663
X149.225Y-47.625
X149.225Y-65.278
X149.987Y-109.855
X150.3Y-51.975
X150.375Y-76.975
X151.025Y-115.225
X151.25Y-70.825
X151.3Y-54.2
X151.375Y-81.975
X151.377Y-67.063
X152.125Y-50.35
X152.75Y-99.75
X154.051Y-75.438
X154.629Y-117.79
X154.7Y-60.4
X154.721Y-54.264
X154.95Y-85.525
X155.448Y-54.991
X155.625Y-59.925
X155.702Y-56.642
X156.25Y-62.5
X156.25Y-69.925
X157.375Y-76.7
X157.7Y-68.175
X157.861Y-55.118
X157.861Y-57.404
X158.0Y-59.2
X158.115Y-52.832
X159.258Y-51.816
X159.639Y-125.349
X159.9Y-49.325
X160.65Y-53.9
X160.655Y-75.565
X160.655Y-125.984
X161.417Y-51.689
X163.075Y-67.85
X163.576Y-110.617
X164.338Y-70.838
X165.608Y-70.925
X166.116Y-118.364
X168.2Y-99.825
X168.529Y-74.549
X168.529Y-77.724
X169.525Y-97.475
X169.525Y-102.0
X170.942Y-81.661
X171.069Y-118.745
X171.425Y-103.4
X172.085Y-125.222
X172.375Y-101.95
X172.847Y-83.058
X172.974Y-125.984
X173.625Y-103.375
X173.863Y-78.74
X175.133Y-76.708
X175.641Y-48.387
X176.403Y-95.885
X176.53Y-110.998
X176.657Y-75.311
X178.054Y-122.428
X184.531Y-127.0
T3
X136.614Y-89.534
X137.884Y-89.534
X139.154Y-89.534
T4
X159.99Y-102.968
X159.99Y-105.507
X159.99Y-108.047
X159.99Y-110.587
T6
X105.999Y-87.212
X105.999Y-89.712
X105.999Y-92.212
X105.999Y-94.712
X106.049Y-73.587
X106.049Y-76.087
X106.049Y-78.587
X106.049Y-103.362
X106.049Y-105.862
X106.049Y-108.362
X106.049Y-110.862
X106.066Y-118.678
X106.066Y-121.178
X106.066Y-123.678
X106.066Y-126.178
X115.182Y-128.905
X117.682Y-128.905
X120.182Y-128.905
X122.682Y-128.905
X130.422Y-128.905
X132.922Y-128.905
X135.422Y-128.905
X137.922Y-128.905
X179.832Y-95.838
X179.832Y-98.338
X179.832Y-100.838
X179.832Y-103.338
X179.864Y-110.97
X179.864Y-113.47
X179.864Y-115.97
X180.086Y-75.304
X180.086Y-77.804
X180.086Y-80.304
X180.086Y-82.804
X180.086Y-85.304
X180.086Y-87.804
T7
X146.324Y-129.011
X146.485Y-81.68
X146.485Y-93.68
X148.824Y-129.011
X158.028Y-129.159
X160.528Y-129.159
X169.746Y-129.195
X172.246Y-129.195
X186.944Y-124.46
X186.944Y-127.0
T8
X110.287Y-49.033
X110.287Y-53.533
X116.787Y-49.033
X116.787Y-53.533
X143.562Y-102.906
X143.562Y-107.406
X144.729Y-122.528
X147.269Y-122.528
X149.809Y-122.528
X150.062Y-102.906
X150.062Y-107.406
X154.103Y-68.87
X154.103Y-73.37
X156.658Y-122.469
X159.198Y-122.469
X160.603Y-68.87
X160.603Y-73.37
X161.738Y-122.469
X168.656Y-122.555
X171.196Y-122.555
X173.736Y-122.555
T9
X144.535Y-87.63
X158.685Y-93.68
X158.735Y-81.63
X184.709Y-57.992
X184.709Y-62.992
X184.709Y-67.992
T10
X99.525Y-61.835
X99.525Y-66.835
T11
X99.822Y-50.546
X101.219Y-135.382
X184.15Y-50.419
X185.293Y-135.001
T2
G00X97.1Y-60.46
M15
G01X96.45Y-60.46
M16
G05
G00X97.1Y-68.21
M15
G01X96.45Y-68.21
M16
G05
T5
G00X100.85Y-60.61
M15
G01X100.3Y-60.61
M16
G05
G00X100.85Y-68.06
M15
G01X100.3Y-68.06
M16
G05
M30
