%TF.GenerationSoftware,KiCad,Pcbnew,8.0.7*%
%TF.CreationDate,2025-02-15T14:18:58+03:00*%
%TF.ProjectId,IoT Edge Device V1,496f5420-4564-4676-9520-446576696365,rev?*%
%TF.SameCoordinates,Original*%
%TF.FileFunction,Copper,L1,Top*%
%TF.FilePolarity,Positive*%
%FSLAX46Y46*%
G04 Gerber Fmt 4.6, Leading zero omitted, Abs format (unit mm)*
G04 Created by KiCad (PCBNEW 8.0.7) date 2025-02-15 14:18:58*
%MOMM*%
%LPD*%
G01*
G04 APERTURE LIST*
G04 Aperture macros list*
%AMRoundRect*
0 Rectangle with rounded corners*
0 $1 Rounding radius*
0 $2 $3 $4 $5 $6 $7 $8 $9 X,Y pos of 4 corners*
0 Add a 4 corners polygon primitive as box body*
4,1,4,$2,$3,$4,$5,$6,$7,$8,$9,$2,$3,0*
0 Add four circle primitives for the rounded corners*
1,1,$1+$1,$2,$3*
1,1,$1+$1,$4,$5*
1,1,$1+$1,$6,$7*
1,1,$1+$1,$8,$9*
0 Add four rect primitives between the rounded corners*
20,1,$1+$1,$2,$3,$4,$5,0*
20,1,$1+$1,$4,$5,$6,$7,0*
20,1,$1+$1,$6,$7,$8,$9,0*
20,1,$1+$1,$8,$9,$2,$3,0*%
G04 Aperture macros list end*
%TA.AperFunction,SMDPad,CuDef*%
%ADD10RoundRect,0.140000X0.170000X-0.140000X0.170000X0.140000X-0.170000X0.140000X-0.170000X-0.140000X0*%
%TD*%
%TA.AperFunction,SMDPad,CuDef*%
%ADD11RoundRect,0.218750X0.256250X-0.218750X0.256250X0.218750X-0.256250X0.218750X-0.256250X-0.218750X0*%
%TD*%
%TA.AperFunction,SMDPad,CuDef*%
%ADD12RoundRect,0.135000X0.135000X0.185000X-0.135000X0.185000X-0.135000X-0.185000X0.135000X-0.185000X0*%
%TD*%
%TA.AperFunction,SMDPad,CuDef*%
%ADD13R,1.050000X1.500000*%
%TD*%
%TA.AperFunction,SMDPad,CuDef*%
%ADD14R,2.400000X1.500000*%
%TD*%
%TA.AperFunction,SMDPad,CuDef*%
%ADD15RoundRect,0.140000X-0.140000X-0.170000X0.140000X-0.170000X0.140000X0.170000X-0.140000X0.170000X0*%
%TD*%
%TA.AperFunction,SMDPad,CuDef*%
%ADD16RoundRect,0.218750X-0.256250X0.218750X-0.256250X-0.218750X0.256250X-0.218750X0.256250X0.218750X0*%
%TD*%
%TA.AperFunction,ComponentPad*%
%ADD17RoundRect,0.250000X0.725000X-0.600000X0.725000X0.600000X-0.725000X0.600000X-0.725000X-0.600000X0*%
%TD*%
%TA.AperFunction,ComponentPad*%
%ADD18O,1.950000X1.700000*%
%TD*%
%TA.AperFunction,ComponentPad*%
%ADD19R,1.050000X1.500000*%
%TD*%
%TA.AperFunction,ComponentPad*%
%ADD20O,1.050000X1.500000*%
%TD*%
%TA.AperFunction,ComponentPad*%
%ADD21R,2.600000X2.600000*%
%TD*%
%TA.AperFunction,ComponentPad*%
%ADD22C,2.600000*%
%TD*%
%TA.AperFunction,SMDPad,CuDef*%
%ADD23R,1.500000X0.900000*%
%TD*%
%TA.AperFunction,SMDPad,CuDef*%
%ADD24R,0.900000X1.500000*%
%TD*%
%TA.AperFunction,SMDPad,CuDef*%
%ADD25R,0.900000X0.900000*%
%TD*%
%TA.AperFunction,SMDPad,CuDef*%
%ADD26R,2.800000X1.100000*%
%TD*%
%TA.AperFunction,SMDPad,CuDef*%
%ADD27R,2.600000X1.100000*%
%TD*%
%TA.AperFunction,SMDPad,CuDef*%
%ADD28RoundRect,0.140000X0.140000X0.170000X-0.140000X0.170000X-0.140000X-0.170000X0.140000X-0.170000X0*%
%TD*%
%TA.AperFunction,SMDPad,CuDef*%
%ADD29R,1.300000X0.450000*%
%TD*%
%TA.AperFunction,ComponentPad*%
%ADD30O,1.800000X1.150000*%
%TD*%
%TA.AperFunction,ComponentPad*%
%ADD31O,2.000000X1.450000*%
%TD*%
%TA.AperFunction,ComponentPad*%
%ADD32RoundRect,0.250000X-0.600000X-0.750000X0.600000X-0.750000X0.600000X0.750000X-0.600000X0.750000X0*%
%TD*%
%TA.AperFunction,ComponentPad*%
%ADD33O,1.700000X2.000000*%
%TD*%
%TA.AperFunction,SMDPad,CuDef*%
%ADD34RoundRect,0.140000X-0.170000X0.140000X-0.170000X-0.140000X0.170000X-0.140000X0.170000X0.140000X0*%
%TD*%
%TA.AperFunction,SMDPad,CuDef*%
%ADD35RoundRect,0.218750X-0.218750X-0.256250X0.218750X-0.256250X0.218750X0.256250X-0.218750X0.256250X0*%
%TD*%
%TA.AperFunction,ComponentPad*%
%ADD36C,2.000000*%
%TD*%
%TA.AperFunction,SMDPad,CuDef*%
%ADD37RoundRect,0.225000X-0.250000X0.225000X-0.250000X-0.225000X0.250000X-0.225000X0.250000X0.225000X0*%
%TD*%
%TA.AperFunction,ComponentPad*%
%ADD38R,1.905000X2.000000*%
%TD*%
%TA.AperFunction,ComponentPad*%
%ADD39O,1.905000X2.000000*%
%TD*%
%TA.AperFunction,SMDPad,CuDef*%
%ADD40RoundRect,0.135000X0.185000X-0.135000X0.185000X0.135000X-0.185000X0.135000X-0.185000X-0.135000X0*%
%TD*%
%TA.AperFunction,ComponentPad*%
%ADD41RoundRect,0.250000X-0.725000X0.600000X-0.725000X-0.600000X0.725000X-0.600000X0.725000X0.600000X0*%
%TD*%
%TA.AperFunction,SMDPad,CuDef*%
%ADD42RoundRect,0.135000X-0.135000X-0.185000X0.135000X-0.185000X0.135000X0.185000X-0.135000X0.185000X0*%
%TD*%
%TA.AperFunction,SMDPad,CuDef*%
%ADD43RoundRect,0.225000X0.250000X-0.225000X0.250000X0.225000X-0.250000X0.225000X-0.250000X-0.225000X0*%
%TD*%
%TA.AperFunction,SMDPad,CuDef*%
%ADD44RoundRect,0.135000X-0.185000X0.135000X-0.185000X-0.135000X0.185000X-0.135000X0.185000X0.135000X0*%
%TD*%
%TA.AperFunction,ComponentPad*%
%ADD45C,3.000000*%
%TD*%
%TA.AperFunction,ComponentPad*%
%ADD46C,2.500000*%
%TD*%
%TA.AperFunction,SMDPad,CuDef*%
%ADD47RoundRect,0.147500X-0.172500X0.147500X-0.172500X-0.147500X0.172500X-0.147500X0.172500X0.147500X0*%
%TD*%
%TA.AperFunction,SMDPad,CuDef*%
%ADD48R,0.500000X0.350000*%
%TD*%
%TA.AperFunction,SMDPad,CuDef*%
%ADD49R,0.700000X1.600000*%
%TD*%
%TA.AperFunction,SMDPad,CuDef*%
%ADD50R,1.750000X0.700000*%
%TD*%
%TA.AperFunction,SMDPad,CuDef*%
%ADD51R,1.000000X1.450000*%
%TD*%
%TA.AperFunction,SMDPad,CuDef*%
%ADD52R,1.550000X1.000000*%
%TD*%
%TA.AperFunction,SMDPad,CuDef*%
%ADD53R,1.500000X0.800000*%
%TD*%
%TA.AperFunction,SMDPad,CuDef*%
%ADD54R,1.500000X1.300000*%
%TD*%
%TA.AperFunction,SMDPad,CuDef*%
%ADD55R,1.500000X1.500000*%
%TD*%
%TA.AperFunction,SMDPad,CuDef*%
%ADD56R,1.400000X0.800000*%
%TD*%
%TA.AperFunction,SMDPad,CuDef*%
%ADD57RoundRect,0.175000X-0.175000X-0.325000X0.175000X-0.325000X0.175000X0.325000X-0.175000X0.325000X0*%
%TD*%
%TA.AperFunction,SMDPad,CuDef*%
%ADD58RoundRect,0.150000X-0.200000X-0.150000X0.200000X-0.150000X0.200000X0.150000X-0.200000X0.150000X0*%
%TD*%
%TA.AperFunction,ComponentPad*%
%ADD59RoundRect,0.250000X-0.600000X-0.725000X0.600000X-0.725000X0.600000X0.725000X-0.600000X0.725000X0*%
%TD*%
%TA.AperFunction,ComponentPad*%
%ADD60O,1.700000X1.950000*%
%TD*%
%TA.AperFunction,ComponentPad*%
%ADD61R,1.700000X1.700000*%
%TD*%
%TA.AperFunction,ComponentPad*%
%ADD62O,1.700000X1.700000*%
%TD*%
%TA.AperFunction,SMDPad,CuDef*%
%ADD63RoundRect,0.375000X-0.375000X0.625000X-0.375000X-0.625000X0.375000X-0.625000X0.375000X0.625000X0*%
%TD*%
%TA.AperFunction,SMDPad,CuDef*%
%ADD64RoundRect,0.500000X-1.400000X0.500000X-1.400000X-0.500000X1.400000X-0.500000X1.400000X0.500000X0*%
%TD*%
%TA.AperFunction,SMDPad,CuDef*%
%ADD65RoundRect,0.178200X-0.584300X-0.151800X0.584300X-0.151800X0.584300X0.151800X-0.584300X0.151800X0*%
%TD*%
%TA.AperFunction,SMDPad,CuDef*%
%ADD66R,2.210000X3.100000*%
%TD*%
%TA.AperFunction,ComponentPad*%
%ADD67R,1.500000X1.500000*%
%TD*%
%TA.AperFunction,ComponentPad*%
%ADD68C,1.500000*%
%TD*%
%TA.AperFunction,SMDPad,CuDef*%
%ADD69RoundRect,0.218750X0.218750X0.256250X-0.218750X0.256250X-0.218750X-0.256250X0.218750X-0.256250X0*%
%TD*%
%TA.AperFunction,ViaPad*%
%ADD70C,0.600000*%
%TD*%
%TA.AperFunction,Conductor*%
%ADD71C,0.300000*%
%TD*%
%TA.AperFunction,Conductor*%
%ADD72C,0.500000*%
%TD*%
%TA.AperFunction,Conductor*%
%ADD73C,0.250000*%
%TD*%
%TA.AperFunction,Conductor*%
%ADD74C,0.200000*%
%TD*%
G04 APERTURE END LIST*
D10*
%TO.P,C17,1*%
%TO.N,GND*%
X123264000Y-72175000D03*
%TO.P,C17,2*%
%TO.N,VIN_IP*%
X123264000Y-71215000D03*
%TD*%
D11*
%TO.P,D10,1,K*%
%TO.N,Net-(D10-K)*%
X120588000Y-76316500D03*
%TO.P,D10,2,A*%
%TO.N,Net-(D10-A)*%
X120588000Y-74741500D03*
%TD*%
D12*
%TO.P,R19,1*%
%TO.N,SCL*%
X118822000Y-83024000D03*
%TO.P,R19,2*%
%TO.N,+3.3VREG*%
X117802000Y-83024000D03*
%TD*%
D10*
%TO.P,C6,1*%
%TO.N,GND*%
X122428000Y-58392000D03*
%TO.P,C6,2*%
%TO.N,XTAL_32K_P*%
X122428000Y-57432000D03*
%TD*%
D13*
%TO.P,D5,A*%
%TO.N,Net-(U3-VO)*%
X160527000Y-117475000D03*
D14*
%TO.P,D5,C*%
%TO.N,VIN_IP*%
X162902000Y-117475000D03*
%TD*%
D15*
%TO.P,C22,1*%
%TO.N,Net-(C22-Pad1)*%
X138858000Y-72779000D03*
%TO.P,C22,2*%
%TO.N,GND*%
X139818000Y-72779000D03*
%TD*%
%TO.P,C4,1*%
%TO.N,5VUSB*%
X120029000Y-89228000D03*
%TO.P,C4,2*%
%TO.N,GND*%
X120989000Y-89228000D03*
%TD*%
D16*
%TO.P,D9,1,K*%
%TO.N,Net-(D8-A)*%
X118338000Y-74741500D03*
%TO.P,D9,2,A*%
%TO.N,Net-(D10-K)*%
X118338000Y-76316500D03*
%TD*%
D17*
%TO.P,J7,1,Pin_1*%
%TO.N,+3.3VREG*%
X179832000Y-103338000D03*
D18*
%TO.P,J7,2,Pin_2*%
%TO.N,TXD1*%
X179832000Y-100838000D03*
%TO.P,J7,3,Pin_3*%
%TO.N,RXD1*%
X179832000Y-98338000D03*
%TO.P,J7,4,Pin_4*%
%TO.N,GND*%
X179832000Y-95838000D03*
%TD*%
D19*
%TO.P,Q1,1,E*%
%TO.N,GND*%
X136614000Y-89534000D03*
D20*
%TO.P,Q1,2,B*%
%TO.N,Net-(Q1-B)*%
X137884000Y-89534000D03*
%TO.P,Q1,3,C*%
%TO.N,Net-(D14-A)*%
X139154000Y-89534000D03*
%TD*%
D21*
%TO.P,J16,1,Pin_1*%
%TO.N,/NC*%
X184709000Y-67992000D03*
D22*
%TO.P,J16,2,Pin_2*%
%TO.N,/NO*%
X184709000Y-62992000D03*
%TO.P,J16,3,Pin_3*%
%TO.N,/COM*%
X184709000Y-57992000D03*
%TD*%
D10*
%TO.P,C9,1*%
%TO.N,CHIP_PU*%
X105409500Y-52271500D03*
%TO.P,C9,2*%
%TO.N,GND*%
X105409500Y-51311500D03*
%TD*%
D23*
%TO.P,X1,1,GND*%
%TO.N,GND*%
X130187500Y-47547500D03*
%TO.P,X1,2,3V3*%
%TO.N,+3.3VREG*%
X130187500Y-48817500D03*
%TO.P,X1,3,EN*%
%TO.N,CHIP_PU*%
X130187500Y-50087500D03*
%TO.P,X1,4,IO4*%
%TO.N,ADC2*%
X130187500Y-51357500D03*
%TO.P,X1,5,IO5*%
%TO.N,LED*%
X130187500Y-52627500D03*
%TO.P,X1,6,IO6*%
%TO.N,RELAY*%
X130187500Y-53897500D03*
%TO.P,X1,7,IO7*%
%TO.N,unconnected-(X1-IO7-Pad7)*%
X130187500Y-55167500D03*
%TO.P,X1,8,IO15*%
%TO.N,XTAL_32K_P*%
X130187500Y-56437500D03*
%TO.P,X1,9,IO16*%
%TO.N,XTAL_32K_N*%
X130187500Y-57707500D03*
%TO.P,X1,10,IO17*%
%TO.N,TXD2*%
X130187500Y-58977500D03*
%TO.P,X1,11,IO18*%
%TO.N,RXD2*%
X130187500Y-60247500D03*
%TO.P,X1,12,IO8*%
%TO.N,DHT_DATA*%
X130187500Y-61517500D03*
%TO.P,X1,13,IO19*%
%TO.N,USB_D-*%
X130187500Y-62787500D03*
%TO.P,X1,14,IO20*%
%TO.N,USB_D+*%
X130187500Y-64057500D03*
D24*
%TO.P,X1,15,IO3*%
%TO.N,IRQ1*%
X131952500Y-65307500D03*
%TO.P,X1,16,IO46*%
%TO.N,SCLK*%
X133222500Y-65307500D03*
%TO.P,X1,17,IO9*%
%TO.N,CS_LORA*%
X134492500Y-65307500D03*
%TO.P,X1,18,IO10*%
%TO.N,CS_SD*%
X135762500Y-65307500D03*
%TO.P,X1,19,IO11*%
%TO.N,MOSI_LORA*%
X137032500Y-65307500D03*
%TO.P,X1,20,IO12*%
%TO.N,SCLK_LORA*%
X138302500Y-65307500D03*
%TO.P,X1,21,IO13*%
%TO.N,MISO_LORA*%
X139572500Y-65307500D03*
%TO.P,X1,22,IO14*%
%TO.N,RESET*%
X140842500Y-65307500D03*
%TO.P,X1,23,IO21*%
%TO.N,unconnected-(X1-IO21-Pad23)*%
X142112500Y-65307500D03*
%TO.P,X1,24,IO47*%
%TO.N,MISO*%
X143382500Y-65307500D03*
%TO.P,X1,25,IO48*%
%TO.N,CS*%
X144652500Y-65307500D03*
%TO.P,X1,26,IO45*%
%TO.N,MOSI*%
X145922500Y-65307500D03*
D23*
%TO.P,X1,27,IO0*%
%TO.N,BOOT*%
X147687500Y-64057500D03*
%TO.P,X1,28,IO35*%
%TO.N,MOSI_SD*%
X147687500Y-62787500D03*
%TO.P,X1,29,IO36*%
%TO.N,SCLK_SD*%
X147687500Y-61517500D03*
%TO.P,X1,30,IO37*%
%TO.N,MISO_SD*%
X147687500Y-60247500D03*
%TO.P,X1,31,IO38*%
%TO.N,SDA*%
X147687500Y-58977500D03*
%TO.P,X1,32,IO39*%
%TO.N,SCL*%
X147687500Y-57707500D03*
%TO.P,X1,33,IO40*%
%TO.N,unconnected-(X1-IO40-Pad33)*%
X147687500Y-56437500D03*
%TO.P,X1,34,IO41*%
%TO.N,IRQ2*%
X147687500Y-55167500D03*
%TO.P,X1,35,IO42*%
%TO.N,IRQ3*%
X147687500Y-53897500D03*
%TO.P,X1,36,RXD0*%
%TO.N,RXD1*%
X147687500Y-52627500D03*
%TO.P,X1,37,TXD0*%
%TO.N,TXD1*%
X147687500Y-51357500D03*
%TO.P,X1,38,IO2*%
%TO.N,unconnected-(X1-IO2-Pad38)*%
X147687500Y-50087500D03*
%TO.P,X1,39,IO1*%
%TO.N,ADC1*%
X147687500Y-48817500D03*
%TO.P,X1,40,GND*%
%TO.N,GND*%
X147687500Y-47547500D03*
D25*
%TO.P,X1,41,GND*%
X137437500Y-55267500D03*
%TO.P,X1,42,GND*%
X137437500Y-53867500D03*
%TO.P,X1,43,GND*%
X136037500Y-53867500D03*
%TO.P,X1,44,GND*%
X136037500Y-55267500D03*
%TO.P,X1,45,GND*%
X136037500Y-56667500D03*
%TO.P,X1,46,GND*%
X137437500Y-56667500D03*
%TO.P,X1,47,GND*%
X138837500Y-56667500D03*
%TO.P,X1,48,GND*%
X138837500Y-55267500D03*
%TO.P,X1,49,GND*%
X138837500Y-53867500D03*
%TD*%
D26*
%TO.P,U6,1,GND*%
%TO.N,GND*%
X120920500Y-103617000D03*
D27*
%TO.P,U6,2,GND*%
X120820500Y-105617000D03*
%TO.P,U6,3,VDD*%
%TO.N,+3.3VREG*%
X120820500Y-107617000D03*
%TO.P,U6,4,~{RESET}*%
%TO.N,RESET*%
X120820500Y-109617000D03*
%TO.P,U6,5,DIO0*%
%TO.N,IRQ1*%
X120820500Y-111617000D03*
%TO.P,U6,6,DIO1*%
%TO.N,IRQ2*%
X120820500Y-113617000D03*
%TO.P,U6,7,DIO2*%
%TO.N,IRQ3*%
X120820500Y-115617000D03*
%TO.P,U6,8,DIO3*%
%TO.N,unconnected-(U6-DIO3-Pad8)*%
X120820500Y-117617000D03*
%TO.P,U6,9,GND*%
%TO.N,GND*%
X136220500Y-117617000D03*
%TO.P,U6,10,DIO4*%
%TO.N,unconnected-(U6-DIO4-Pad10)*%
X136220500Y-115617000D03*
%TO.P,U6,11,DIO5*%
%TO.N,unconnected-(U6-DIO5-Pad11)*%
X136220500Y-113617000D03*
%TO.P,U6,12,SCK*%
%TO.N,SCLK_LORA*%
X136220500Y-111617000D03*
%TO.P,U6,13,MISO*%
%TO.N,MISO_LORA*%
X136220500Y-109617000D03*
%TO.P,U6,14,MOSI*%
%TO.N,MOSI_LORA*%
X136220500Y-107617000D03*
%TO.P,U6,15,~{NSS}*%
%TO.N,CS_LORA*%
X136220500Y-105617000D03*
%TO.P,U6,16,GND*%
%TO.N,GND*%
X136220500Y-103617000D03*
%TD*%
D28*
%TO.P,C11,1*%
%TO.N,Net-(U2-VO)*%
X144752000Y-118237000D03*
%TO.P,C11,2*%
%TO.N,GND*%
X143792000Y-118237000D03*
%TD*%
D29*
%TO.P,J1,1,VBUS*%
%TO.N,5VUSB*%
X100625000Y-63035000D03*
%TO.P,J1,2,D-*%
%TO.N,USB_D-*%
X100625000Y-63685000D03*
%TO.P,J1,3,D+*%
%TO.N,USB_D+*%
X100625000Y-64335000D03*
%TO.P,J1,4,ID*%
%TO.N,unconnected-(J1-ID-Pad4)*%
X100625000Y-64985000D03*
%TO.P,J1,5,GND*%
%TO.N,GND*%
X100625000Y-65635000D03*
D30*
%TO.P,J1,6,Shield*%
%TO.N,unconnected-(J1-Shield-Pad6)_3*%
X96775000Y-60460000D03*
D31*
%TO.N,unconnected-(J1-Shield-Pad6)_2*%
X100575000Y-60610000D03*
%TO.N,unconnected-(J1-Shield-Pad6)*%
X100575000Y-68060000D03*
D30*
%TO.N,unconnected-(J1-Shield-Pad6)_1*%
X96775000Y-68210000D03*
%TD*%
D32*
%TO.P,J13,1,Pin_1*%
%TO.N,Net-(J13-Pin_1)*%
X169746000Y-129195000D03*
D33*
%TO.P,J13,2,Pin_2*%
%TO.N,GND*%
X172246000Y-129195000D03*
%TD*%
D34*
%TO.P,C8,1*%
%TO.N,BOOT*%
X163322000Y-69850000D03*
%TO.P,C8,2*%
%TO.N,GND*%
X163322000Y-70810000D03*
%TD*%
D32*
%TO.P,J11,1,Pin_1*%
%TO.N,Net-(J11-Pin_1)*%
X146324000Y-129011000D03*
D33*
%TO.P,J11,2,Pin_2*%
%TO.N,GND*%
X148824000Y-129011000D03*
%TD*%
D28*
%TO.P,C13,1*%
%TO.N,Net-(U3-VO)*%
X156464000Y-117729000D03*
%TO.P,C13,2*%
%TO.N,GND*%
X155504000Y-117729000D03*
%TD*%
D11*
%TO.P,D13,1,K*%
%TO.N,GND*%
X123231500Y-54855500D03*
%TO.P,D13,2,A*%
%TO.N,Net-(D13-A)*%
X123231500Y-53280500D03*
%TD*%
D35*
%TO.P,D16,1,K*%
%TO.N,GND*%
X138746500Y-84224000D03*
%TO.P,D16,2,A*%
%TO.N,Net-(D16-A)*%
X140321500Y-84224000D03*
%TD*%
D36*
%TO.P,SW1,1,1*%
%TO.N,GND*%
X160603000Y-73370000D03*
X154103000Y-73370000D03*
%TO.P,SW1,2,2*%
%TO.N,BOOT*%
X160603000Y-68870000D03*
X154103000Y-68870000D03*
%TD*%
D10*
%TO.P,C24,1*%
%TO.N,+3.3VREG*%
X115522500Y-107303000D03*
%TO.P,C24,2*%
%TO.N,GND*%
X115522500Y-106343000D03*
%TD*%
D37*
%TO.P,C20,1*%
%TO.N,VOUT_IP*%
X136588000Y-69504000D03*
%TO.P,C20,2*%
%TO.N,GND*%
X136588000Y-71054000D03*
%TD*%
D13*
%TO.P,D4,A*%
%TO.N,Net-(U2-VO)*%
X148628000Y-117602000D03*
D14*
%TO.P,D4,C*%
%TO.N,VIN_IP*%
X151003000Y-117602000D03*
%TD*%
D17*
%TO.P,J2,1,Pin_1*%
%TO.N,+3.3VREG*%
X180086000Y-87804000D03*
D18*
%TO.P,J2,2,Pin_2*%
%TO.N,CS*%
X180086000Y-85304000D03*
%TO.P,J2,3,Pin_3*%
%TO.N,SCLK*%
X180086000Y-82804000D03*
%TO.P,J2,4,Pin_4*%
%TO.N,MOSI*%
X180086000Y-80304000D03*
%TO.P,J2,5,Pin_5*%
%TO.N,MISO*%
X180086000Y-77804000D03*
%TO.P,J2,6,Pin_6*%
%TO.N,GND*%
X180086000Y-75304000D03*
%TD*%
D38*
%TO.P,U4,1,VI*%
%TO.N,Net-(J13-Pin_1)*%
X168656000Y-122555000D03*
D39*
%TO.P,U4,2,GND*%
%TO.N,GND*%
X171196000Y-122555000D03*
%TO.P,U4,3,VO*%
%TO.N,Net-(U4-VO)*%
X173736000Y-122555000D03*
%TD*%
D40*
%TO.P,R17,1*%
%TO.N,Net-(D15-A)*%
X132969000Y-91440000D03*
%TO.P,R17,2*%
%TO.N,VOUT_IP*%
X132969000Y-90420000D03*
%TD*%
D41*
%TO.P,J8,1,Pin_1*%
%TO.N,+3.3VREG*%
X106066000Y-118678000D03*
D18*
%TO.P,J8,2,Pin_2*%
%TO.N,GND*%
X106066000Y-121178000D03*
%TO.P,J8,3,Pin_3*%
%TO.N,SDA*%
X106066000Y-123678000D03*
%TO.P,J8,4,Pin_4*%
%TO.N,SCL*%
X106066000Y-126178000D03*
%TD*%
D40*
%TO.P,R6,1*%
%TO.N,Net-(C16-Pad2)*%
X120888000Y-72234000D03*
%TO.P,R6,2*%
%TO.N,VIN_IP*%
X120888000Y-71214000D03*
%TD*%
D42*
%TO.P,R18,1*%
%TO.N,RELAY*%
X135864000Y-84774000D03*
%TO.P,R18,2*%
%TO.N,Net-(Q1-B)*%
X136884000Y-84774000D03*
%TD*%
D43*
%TO.P,C1,1*%
%TO.N,+3.3VREG*%
X124706500Y-49700500D03*
%TO.P,C1,2*%
%TO.N,GND*%
X124706500Y-48150500D03*
%TD*%
D44*
%TO.P,R1,1*%
%TO.N,+3.3VREG*%
X148590000Y-70989000D03*
%TO.P,R1,2*%
%TO.N,Net-(D1-A)*%
X148590000Y-72009000D03*
%TD*%
D45*
%TO.P,K1,1*%
%TO.N,/COM*%
X144535000Y-87630000D03*
D46*
%TO.P,K1,2*%
%TO.N,Net-(D14-A)*%
X146485000Y-93680000D03*
D45*
%TO.P,K1,3*%
%TO.N,/NO*%
X158685000Y-93680000D03*
%TO.P,K1,4*%
%TO.N,/NC*%
X158735000Y-81630000D03*
D46*
%TO.P,K1,5*%
%TO.N,VOUT_IP*%
X146485000Y-81680000D03*
%TD*%
D13*
%TO.P,D6,A*%
%TO.N,5VUSB*%
X125730000Y-89408000D03*
D14*
%TO.P,D6,C*%
%TO.N,VIN_IP*%
X128105000Y-89408000D03*
%TD*%
D44*
%TO.P,R12,1*%
%TO.N,+3.3VREG*%
X155662000Y-49257500D03*
%TO.P,R12,2*%
%TO.N,MOSI_SD*%
X155662000Y-50277500D03*
%TD*%
D47*
%TO.P,L1,1,1*%
%TO.N,Net-(U5-SW)*%
X132588000Y-72794000D03*
%TO.P,L1,2,2*%
%TO.N,BAT*%
X132588000Y-73764000D03*
%TD*%
D15*
%TO.P,C12,1*%
%TO.N,Net-(J12-Pin_1)*%
X157878000Y-125349000D03*
%TO.P,C12,2*%
%TO.N,GND*%
X158838000Y-125349000D03*
%TD*%
D40*
%TO.P,R2,1*%
%TO.N,CHIP_PU*%
X122935500Y-50777500D03*
%TO.P,R2,2*%
%TO.N,+3.3VREG*%
X122935500Y-49757500D03*
%TD*%
D48*
%TO.P,U8,1,GND*%
%TO.N,GND*%
X120260000Y-85049000D03*
%TO.P,U8,2,CSB*%
%TO.N,Net-(U8-CSB)*%
X120260000Y-84399000D03*
%TO.P,U8,3,SDI*%
%TO.N,SDA*%
X120260000Y-83749000D03*
%TO.P,U8,4,SCK*%
%TO.N,SCL*%
X120260000Y-83099000D03*
%TO.P,U8,5,SDO*%
%TO.N,Net-(U8-SDO)*%
X122310000Y-83099000D03*
%TO.P,U8,6,VDDIO*%
%TO.N,+3.3VREG*%
X122310000Y-83749000D03*
%TO.P,U8,7,GND*%
%TO.N,GND*%
X122310000Y-84399000D03*
%TO.P,U8,8,VDD*%
%TO.N,+3.3VREG*%
X122310000Y-85049000D03*
%TD*%
D12*
%TO.P,R22,1*%
%TO.N,GND*%
X124500000Y-82725000D03*
%TO.P,R22,2*%
%TO.N,Net-(U8-SDO)*%
X123480000Y-82725000D03*
%TD*%
D43*
%TO.P,C23,1*%
%TO.N,+3.3VREG*%
X117772500Y-107598000D03*
%TO.P,C23,2*%
%TO.N,GND*%
X117772500Y-106048000D03*
%TD*%
D11*
%TO.P,D8,1,K*%
%TO.N,Net-(D10-K)*%
X116338000Y-76316500D03*
%TO.P,D8,2,A*%
%TO.N,Net-(D8-A)*%
X116338000Y-74741500D03*
%TD*%
D36*
%TO.P,SW2,1,1*%
%TO.N,GND*%
X110287500Y-49033500D03*
X116787500Y-49033500D03*
%TO.P,SW2,2,2*%
%TO.N,CHIP_PU*%
X110287500Y-53533500D03*
X116787500Y-53533500D03*
%TD*%
D16*
%TO.P,D14,1,K*%
%TO.N,VOUT_IP*%
X132984000Y-84424000D03*
%TO.P,D14,2,A*%
%TO.N,Net-(D14-A)*%
X132984000Y-85999000D03*
%TD*%
D10*
%TO.P,C26,1*%
%TO.N,+3.3VREG*%
X124785000Y-85354000D03*
%TO.P,C26,2*%
%TO.N,GND*%
X124785000Y-84394000D03*
%TD*%
D41*
%TO.P,J4,1,Pin_1*%
%TO.N,+3.3VREG*%
X105999500Y-87212500D03*
D18*
%TO.P,J4,2,Pin_2*%
%TO.N,TXD2*%
X105999500Y-89712500D03*
%TO.P,J4,3,Pin_3*%
%TO.N,RXD2*%
X105999500Y-92212500D03*
%TO.P,J4,4,Pin_4*%
%TO.N,GND*%
X105999500Y-94712500D03*
%TD*%
D38*
%TO.P,U2,1,VI*%
%TO.N,Net-(J11-Pin_1)*%
X144729000Y-122528000D03*
D39*
%TO.P,U2,2,GND*%
%TO.N,GND*%
X147269000Y-122528000D03*
%TO.P,U2,3,VO*%
%TO.N,Net-(U2-VO)*%
X149809000Y-122528000D03*
%TD*%
D44*
%TO.P,R3,1*%
%TO.N,+3.3VREG*%
X107441500Y-51281500D03*
%TO.P,R3,2*%
%TO.N,CHIP_PU*%
X107441500Y-52301500D03*
%TD*%
D49*
%TO.P,Y1,1*%
%TO.N,XTAL_32K_P*%
X117558000Y-57778000D03*
%TO.P,Y1,2*%
%TO.N,N/C*%
X112058000Y-57778000D03*
%TO.P,Y1,3*%
X112058000Y-60078000D03*
%TO.P,Y1,4*%
%TO.N,XTAL_32K_N*%
X117558000Y-60078000D03*
%TD*%
D12*
%TO.P,R20,1*%
%TO.N,SDA*%
X118872000Y-84174000D03*
%TO.P,R20,2*%
%TO.N,+3.3VREG*%
X117852000Y-84174000D03*
%TD*%
D34*
%TO.P,C16,1*%
%TO.N,GND*%
X119110000Y-71272000D03*
%TO.P,C16,2*%
%TO.N,Net-(C16-Pad2)*%
X119110000Y-72232000D03*
%TD*%
D16*
%TO.P,D12,1,K*%
%TO.N,GND*%
X133588000Y-76491500D03*
%TO.P,D12,2,A*%
%TO.N,Net-(D12-A)*%
X133588000Y-78066500D03*
%TD*%
D50*
%TO.P,J15,1,DAT2*%
%TO.N,unconnected-(J15-DAT2-Pad1)*%
X163052000Y-57202500D03*
%TO.P,J15,2,DAT3/CD*%
%TO.N,CS_SD*%
X163052000Y-56102500D03*
%TO.P,J15,3,CMD*%
%TO.N,MOSI_SD*%
X163052000Y-55002500D03*
%TO.P,J15,4,VDD*%
%TO.N,+3.3VREG*%
X163052000Y-53902500D03*
%TO.P,J15,5,CLK*%
%TO.N,SCLK_SD*%
X163052000Y-52802500D03*
%TO.P,J15,6,VSS*%
%TO.N,GND*%
X163052000Y-51702500D03*
%TO.P,J15,7,DAT0*%
%TO.N,MISO_SD*%
X163052000Y-50602500D03*
%TO.P,J15,8,DAT1*%
%TO.N,unconnected-(J15-DAT1-Pad8)*%
X163052000Y-49502500D03*
D51*
%TO.P,J15,9,SHIELD*%
%TO.N,GND*%
X172277000Y-48377500D03*
D52*
%TO.P,J15,10*%
%TO.N,N/C*%
X173852000Y-59602500D03*
D53*
%TO.P,J15,11*%
X170777000Y-48052500D03*
D54*
X163177000Y-48302500D03*
D55*
X163177000Y-59652500D03*
D56*
X171427000Y-60002500D03*
%TD*%
D17*
%TO.P,J6,1,Pin_1*%
%TO.N,+3.3VREG*%
X179864000Y-115970000D03*
D18*
%TO.P,J6,2,Pin_2*%
%TO.N,ADC1*%
X179864000Y-113470000D03*
%TO.P,J6,3,Pin_3*%
%TO.N,GND*%
X179864000Y-110970000D03*
%TD*%
D10*
%TO.P,C25,1*%
%TO.N,+3.3VREG*%
X123535000Y-85354000D03*
%TO.P,C25,2*%
%TO.N,GND*%
X123535000Y-84394000D03*
%TD*%
D37*
%TO.P,C18,1*%
%TO.N,VOUT_IP*%
X133088000Y-69529000D03*
%TO.P,C18,2*%
%TO.N,GND*%
X133088000Y-71079000D03*
%TD*%
D12*
%TO.P,R5,1*%
%TO.N,SCL*%
X136792000Y-121155000D03*
%TO.P,R5,2*%
%TO.N,+3.3VREG*%
X135772000Y-121155000D03*
%TD*%
D44*
%TO.P,R7,1*%
%TO.N,Net-(C22-Pad1)*%
X137588000Y-72769000D03*
%TO.P,R7,2*%
%TO.N,BAT*%
X137588000Y-73789000D03*
%TD*%
D38*
%TO.P,U3,1,VI*%
%TO.N,Net-(J12-Pin_1)*%
X156658000Y-122469000D03*
D39*
%TO.P,U3,2,GND*%
%TO.N,GND*%
X159198000Y-122469000D03*
%TO.P,U3,3,VO*%
%TO.N,Net-(U3-VO)*%
X161738000Y-122469000D03*
%TD*%
D40*
%TO.P,R10,1*%
%TO.N,DHT_DATA*%
X165093000Y-104190000D03*
%TO.P,R10,2*%
%TO.N,+3.3VREG*%
X165093000Y-103170000D03*
%TD*%
D10*
%TO.P,C2,1*%
%TO.N,+3.3VREG*%
X126506500Y-49450500D03*
%TO.P,C2,2*%
%TO.N,GND*%
X126506500Y-48490500D03*
%TD*%
D12*
%TO.P,R16,1*%
%TO.N,Net-(D16-A)*%
X140344000Y-82724000D03*
%TO.P,R16,2*%
%TO.N,VOUT_IP*%
X139324000Y-82724000D03*
%TD*%
D44*
%TO.P,R14,1*%
%TO.N,+3.3VREG*%
X158562000Y-49257500D03*
%TO.P,R14,2*%
%TO.N,MISO_SD*%
X158562000Y-50277500D03*
%TD*%
D34*
%TO.P,C7,1*%
%TO.N,GND*%
X122428000Y-59464000D03*
%TO.P,C7,2*%
%TO.N,XTAL_32K_N*%
X122428000Y-60424000D03*
%TD*%
D16*
%TO.P,D1,1,K*%
%TO.N,GND*%
X146390000Y-70724000D03*
%TO.P,D1,2,A*%
%TO.N,Net-(D1-A)*%
X146390000Y-72299000D03*
%TD*%
D15*
%TO.P,C14,1*%
%TO.N,Net-(J13-Pin_1)*%
X170256000Y-125355000D03*
%TO.P,C14,2*%
%TO.N,GND*%
X171216000Y-125355000D03*
%TD*%
D32*
%TO.P,J12,1,Pin_1*%
%TO.N,Net-(J12-Pin_1)*%
X158028000Y-129159000D03*
D33*
%TO.P,J12,2,Pin_2*%
%TO.N,GND*%
X160528000Y-129159000D03*
%TD*%
D57*
%TO.P,D2,1,A*%
%TO.N,GND*%
X105097500Y-62737500D03*
D58*
%TO.P,D2,2,K*%
%TO.N,5VUSB*%
X105097500Y-64437500D03*
%TO.P,D2,3,K*%
%TO.N,USB_D+*%
X107097500Y-64437500D03*
%TO.P,D2,4,K*%
%TO.N,USB_D-*%
X107097500Y-62537500D03*
%TD*%
D44*
%TO.P,R15,1*%
%TO.N,LED*%
X125981500Y-53605500D03*
%TO.P,R15,2*%
%TO.N,Net-(D13-A)*%
X125981500Y-54625500D03*
%TD*%
%TO.P,R11,1*%
%TO.N,+3.3VREG*%
X154162000Y-49257500D03*
%TO.P,R11,2*%
%TO.N,CS_SD*%
X154162000Y-50277500D03*
%TD*%
D13*
%TO.P,D7,A*%
%TO.N,Net-(U4-VO)*%
X170181000Y-114681000D03*
D14*
%TO.P,D7,C*%
%TO.N,VIN_IP*%
X167806000Y-114681000D03*
%TD*%
D41*
%TO.P,J10,1,Pin_1*%
%TO.N,+3.3VREG*%
X106049500Y-73587500D03*
D18*
%TO.P,J10,2,Pin_2*%
%TO.N,ADC2*%
X106049500Y-76087500D03*
%TO.P,J10,3,Pin_3*%
%TO.N,GND*%
X106049500Y-78587500D03*
%TD*%
D10*
%TO.P,C21,1*%
%TO.N,BAT*%
X136088000Y-73759000D03*
%TO.P,C21,2*%
%TO.N,GND*%
X136088000Y-72799000D03*
%TD*%
D34*
%TO.P,C3,1*%
%TO.N,GND*%
X120649500Y-49787500D03*
%TO.P,C3,2*%
%TO.N,CHIP_PU*%
X120649500Y-50747500D03*
%TD*%
D59*
%TO.P,J5,1,Pin_1*%
%TO.N,+3.3VREG*%
X115182000Y-128905000D03*
D60*
%TO.P,J5,2,Pin_2*%
%TO.N,GND*%
X117682000Y-128905000D03*
%TO.P,J5,3,Pin_3*%
%TO.N,SDA*%
X120182000Y-128905000D03*
%TO.P,J5,4,Pin_4*%
%TO.N,SCL*%
X122682000Y-128905000D03*
%TD*%
D61*
%TO.P,J14,1,Pin_1*%
%TO.N,GND*%
X186944000Y-127000000D03*
D62*
%TO.P,J14,2,Pin_2*%
%TO.N,BAT*%
X186944000Y-124460000D03*
%TD*%
D16*
%TO.P,D11,1,K*%
%TO.N,Net-(D10-A)*%
X122588000Y-74779000D03*
%TO.P,D11,2,A*%
%TO.N,Net-(D10-K)*%
X122588000Y-76354000D03*
%TD*%
D12*
%TO.P,R21,1*%
%TO.N,Net-(U8-CSB)*%
X118965000Y-86124000D03*
%TO.P,R21,2*%
%TO.N,+3.3VREG*%
X117945000Y-86124000D03*
%TD*%
D41*
%TO.P,J3,1,Pin_1*%
%TO.N,+3.3VREG*%
X106049500Y-103362500D03*
D18*
%TO.P,J3,2,Pin_2*%
%TO.N,GND*%
X106049500Y-105862500D03*
%TO.P,J3,3,Pin_3*%
%TO.N,SDA*%
X106049500Y-108362500D03*
%TO.P,J3,4,Pin_4*%
%TO.N,SCL*%
X106049500Y-110862500D03*
%TD*%
D63*
%TO.P,U1,1,GND*%
%TO.N,GND*%
X122809000Y-91412000D03*
%TO.P,U1,2,VO*%
%TO.N,+3.3VREG*%
X120509000Y-91412000D03*
D64*
X120509000Y-97712000D03*
D63*
%TO.P,U1,3,VI*%
%TO.N,5VUSB*%
X118209000Y-91412000D03*
%TD*%
D15*
%TO.P,C10,1*%
%TO.N,Net-(J11-Pin_1)*%
X145694000Y-125095000D03*
%TO.P,C10,2*%
%TO.N,GND*%
X146654000Y-125095000D03*
%TD*%
D59*
%TO.P,J9,1,Pin_1*%
%TO.N,+3.3VREG*%
X130422000Y-128905000D03*
D60*
%TO.P,J9,2,Pin_2*%
%TO.N,GND*%
X132922000Y-128905000D03*
%TO.P,J9,3,Pin_3*%
%TO.N,SDA*%
X135422000Y-128905000D03*
%TO.P,J9,4,Pin_4*%
%TO.N,SCL*%
X137922000Y-128905000D03*
%TD*%
D36*
%TO.P,SW3,1,1*%
%TO.N,Net-(R9-Pad2)*%
X143562000Y-102906000D03*
X150062000Y-102906000D03*
%TO.P,SW3,2,2*%
%TO.N,GND*%
X143562000Y-107406000D03*
X150062000Y-107406000D03*
%TD*%
D65*
%TO.P,U5,1,VCC*%
%TO.N,VIN_IP*%
X125603000Y-71297800D03*
%TO.P,U5,2,LED1*%
%TO.N,Net-(D8-A)*%
X125603000Y-72567800D03*
%TO.P,U5,3,LED2*%
%TO.N,Net-(D10-A)*%
X125603000Y-73837800D03*
%TO.P,U5,4,LED3*%
%TO.N,Net-(D10-K)*%
X125603000Y-75107800D03*
%TO.P,U5,5,KEY*%
%TO.N,Net-(U5-KEY)*%
X130683000Y-75107800D03*
%TO.P,U5,6,BAT*%
%TO.N,BAT*%
X130683000Y-73837800D03*
%TO.P,U5,7,SW*%
%TO.N,Net-(U5-SW)*%
X130683000Y-72567800D03*
%TO.P,U5,8,VOUT*%
%TO.N,VOUT_IP*%
X130683000Y-71297800D03*
D66*
%TO.P,U5,9,GND*%
%TO.N,GND*%
X128143000Y-73202800D03*
%TD*%
D12*
%TO.P,R4,1*%
%TO.N,SDA*%
X133992000Y-121155000D03*
%TO.P,R4,2*%
%TO.N,+3.3VREG*%
X132972000Y-121155000D03*
%TD*%
D37*
%TO.P,C19,1*%
%TO.N,VOUT_IP*%
X134838000Y-69529000D03*
%TO.P,C19,2*%
%TO.N,GND*%
X134838000Y-71079000D03*
%TD*%
D44*
%TO.P,R13,1*%
%TO.N,+3.3VREG*%
X157062000Y-49257500D03*
%TO.P,R13,2*%
%TO.N,SCLK_SD*%
X157062000Y-50277500D03*
%TD*%
D67*
%TO.P,U7,1,VDD*%
%TO.N,+3.3VREG*%
X159990500Y-102967500D03*
D68*
%TO.P,U7,2,DATA*%
%TO.N,DHT_DATA*%
X159990500Y-105507500D03*
%TO.P,U7,3,NC*%
%TO.N,unconnected-(U7-NC-Pad3)*%
X159990500Y-108047500D03*
%TO.P,U7,4,GND*%
%TO.N,GND*%
X159990500Y-110587500D03*
%TD*%
D43*
%TO.P,C5,1*%
%TO.N,+3.3VREG*%
X125095000Y-94869000D03*
%TO.P,C5,2*%
%TO.N,GND*%
X125095000Y-93319000D03*
%TD*%
D28*
%TO.P,C15,1*%
%TO.N,Net-(U4-VO)*%
X167896000Y-118280000D03*
%TO.P,C15,2*%
%TO.N,GND*%
X166936000Y-118280000D03*
%TD*%
D42*
%TO.P,R8,1*%
%TO.N,Net-(U5-KEY)*%
X130578000Y-77029000D03*
%TO.P,R8,2*%
%TO.N,Net-(D12-A)*%
X131598000Y-77029000D03*
%TD*%
D69*
%TO.P,D15,1,K*%
%TO.N,Net-(D14-A)*%
X137668000Y-92964000D03*
%TO.P,D15,2,A*%
%TO.N,Net-(D15-A)*%
X136093000Y-92964000D03*
%TD*%
D42*
%TO.P,R9,1*%
%TO.N,Net-(U5-KEY)*%
X130578000Y-78279000D03*
%TO.P,R9,2*%
%TO.N,Net-(R9-Pad2)*%
X131598000Y-78279000D03*
%TD*%
D70*
%TO.N,+3.3VREG*%
X159900000Y-49325000D03*
X151250000Y-70825000D03*
X106450000Y-51250000D03*
X139725000Y-113575000D03*
X112950000Y-106900000D03*
X115200000Y-125475000D03*
X160650000Y-53900000D03*
X110625000Y-73750000D03*
X131775000Y-121175000D03*
X151375000Y-81975000D03*
X173625000Y-103375000D03*
X169525000Y-102000000D03*
X112350000Y-81900000D03*
X110575000Y-68200000D03*
X129225000Y-85350000D03*
X117800000Y-82025000D03*
X110750000Y-87250000D03*
X110175000Y-104100000D03*
X121875000Y-49750000D03*
X169525000Y-97475000D03*
X116350000Y-101850000D03*
X110975000Y-93375000D03*
X171425000Y-103400000D03*
X130425000Y-125650000D03*
X110325000Y-118675000D03*
%TO.N,GND*%
X139954000Y-55245000D03*
X121920000Y-89662000D03*
X134874000Y-55245000D03*
X104394000Y-51308000D03*
X134493000Y-89408000D03*
X128270000Y-47625000D03*
X108077000Y-48514000D03*
X159639000Y-125349000D03*
X160655000Y-125984000D03*
X134948000Y-76394000D03*
X136017000Y-52705000D03*
X122400000Y-93000000D03*
X120650000Y-48895000D03*
X120269000Y-86106000D03*
X123200000Y-93000000D03*
X184531000Y-127000000D03*
X149987000Y-109855000D03*
X126492000Y-47625000D03*
X124482000Y-81820000D03*
X123317000Y-59436000D03*
X135202000Y-72838000D03*
X122809000Y-105664000D03*
X139774000Y-71949000D03*
X102489000Y-65659000D03*
X171069000Y-118745000D03*
X145161000Y-70485000D03*
X118184000Y-71187000D03*
X109347000Y-121158000D03*
X124714000Y-46990000D03*
X134112000Y-117602000D03*
X136017000Y-57785000D03*
X138811000Y-52705000D03*
X122375000Y-72203000D03*
X109347000Y-94742000D03*
X117856000Y-125603000D03*
X138684000Y-85471000D03*
X149225000Y-47625000D03*
X172974000Y-125984000D03*
X166116000Y-118364000D03*
X137414000Y-52705000D03*
X154051000Y-75438000D03*
X104013000Y-62738000D03*
X172085000Y-125222000D03*
X137869000Y-71187000D03*
X142875000Y-118237000D03*
X122936000Y-103632000D03*
X123317000Y-58420000D03*
X121793000Y-54864000D03*
X122301000Y-86106000D03*
X109347000Y-105918000D03*
X125730000Y-84328000D03*
X137541000Y-57912000D03*
X176657000Y-75311000D03*
X132969000Y-125603000D03*
X121920000Y-88900000D03*
X163576000Y-110617000D03*
X160655000Y-75565000D03*
X125095000Y-92202000D03*
X164338000Y-70838000D03*
X161417000Y-51689000D03*
X118745000Y-49022000D03*
X154629000Y-117790000D03*
X147701000Y-125095000D03*
X128775000Y-76925000D03*
X176530000Y-110998000D03*
X109220000Y-78613000D03*
X176403000Y-95885000D03*
X133985000Y-103632000D03*
X175641000Y-48387000D03*
X143510000Y-109728000D03*
X148971000Y-125857000D03*
X138938000Y-57785000D03*
%TO.N,5VUSB*%
X115062000Y-88773000D03*
X123825000Y-88265000D03*
X103124000Y-62992000D03*
X105100000Y-65650000D03*
%TO.N,VIN_IP*%
X128025000Y-87400000D03*
X131975000Y-95300000D03*
X151025000Y-115225000D03*
X128050000Y-69700000D03*
%TO.N,VOUT_IP*%
X146450000Y-78625000D03*
X137825000Y-69525000D03*
%TO.N,BAT*%
X150375000Y-76975000D03*
X178054000Y-122428000D03*
%TO.N,Net-(D14-A)*%
X139065000Y-87630000D03*
X136144000Y-85979000D03*
%TO.N,SCLK*%
X165608000Y-70925000D03*
X144907000Y-61214000D03*
X170942000Y-81661000D03*
%TO.N,MISO*%
X147955000Y-68707000D03*
X175133000Y-76708000D03*
%TO.N,MOSI*%
X173863000Y-78740000D03*
X149225000Y-65278000D03*
%TO.N,CS*%
X151376880Y-67063120D03*
X172847000Y-83058000D03*
%TO.N,SDA*%
X141025000Y-60175000D03*
X132850000Y-124450000D03*
X129450000Y-78675000D03*
X111175000Y-111075000D03*
X112325000Y-124750000D03*
X121107058Y-84257058D03*
X110775000Y-123950000D03*
X110050000Y-109225000D03*
X120775000Y-125450000D03*
X115100000Y-92700000D03*
%TO.N,SCL*%
X110450000Y-81700000D03*
X112050000Y-97175000D03*
X133200000Y-123200000D03*
X135675000Y-123200000D03*
X140975000Y-59150000D03*
X126700000Y-77400000D03*
%TO.N,TXD2*%
X112200000Y-88200000D03*
X124841000Y-62357000D03*
%TO.N,RXD2*%
X126111000Y-62357000D03*
X113030000Y-90551000D03*
%TO.N,ADC1*%
X158000000Y-59200000D03*
X163075000Y-67850000D03*
X172375000Y-101950000D03*
X152125000Y-50350000D03*
%TO.N,TXD1*%
X156250000Y-69925000D03*
X154700000Y-60400000D03*
X168200000Y-99825000D03*
X157375000Y-76700000D03*
X156250000Y-62500000D03*
X150300000Y-51975000D03*
%TO.N,RXD1*%
X155625000Y-59925000D03*
X157700000Y-68175000D03*
X154950000Y-85525000D03*
X151300000Y-54200000D03*
%TO.N,ADC2*%
X127381000Y-51943000D03*
X113919000Y-65151000D03*
%TO.N,MOSI_SD*%
X155702000Y-56642000D03*
X157861000Y-55118000D03*
%TO.N,SCLK_SD*%
X158115000Y-52832000D03*
X155448000Y-54991000D03*
%TO.N,CS_SD*%
X144907000Y-62865000D03*
X157861000Y-57404000D03*
%TO.N,MISO_SD*%
X159258000Y-51816000D03*
X154721000Y-54264000D03*
%TO.N,RELAY*%
X140375000Y-78050000D03*
X133100000Y-55150000D03*
X135850000Y-83750000D03*
%TO.N,/NO*%
X168529000Y-74549000D03*
X168529000Y-77724000D03*
%TO.N,Net-(R9-Pad2)*%
X143600000Y-98950000D03*
X140100000Y-95425000D03*
X132650000Y-81075000D03*
X134675000Y-94450000D03*
X135225000Y-81750000D03*
%TO.N,DHT_DATA*%
X127250000Y-62500000D03*
X152750000Y-99750000D03*
X133750000Y-98750000D03*
X123750000Y-65500000D03*
X116750000Y-70250000D03*
%TO.N,IRQ1*%
X117856000Y-111633000D03*
X129921000Y-67056000D03*
%TO.N,IRQ3*%
X131191000Y-98298000D03*
X143764000Y-54737000D03*
%TO.N,IRQ2*%
X143383000Y-57150000D03*
X130048000Y-93218000D03*
%TO.N,RESET*%
X140462000Y-68834000D03*
X128270000Y-93091000D03*
%TO.N,MISO_LORA*%
X144399000Y-71628000D03*
X140208000Y-97536000D03*
%TO.N,CS_LORA*%
X132588000Y-100203000D03*
X134493000Y-67056000D03*
%TO.N,SCLK_LORA*%
X142621000Y-64008000D03*
X149098000Y-97663000D03*
%TO.N,MOSI_LORA*%
X137795000Y-77343000D03*
X133477000Y-94361000D03*
X137033000Y-67310000D03*
X133477000Y-81788000D03*
%TD*%
D71*
%TO.N,+3.3VREG*%
X169550000Y-97450000D02*
X169525000Y-97475000D01*
X175995000Y-115970000D02*
X171650000Y-111625000D01*
X106481500Y-51281500D02*
X106450000Y-51250000D01*
D72*
X120820500Y-107617000D02*
X117791500Y-107617000D01*
D71*
X110775000Y-95350000D02*
X110975000Y-95150000D01*
X139775000Y-113625000D02*
X139725000Y-113575000D01*
X151400000Y-72425000D02*
X151400000Y-81950000D01*
X127275000Y-84500000D02*
X127275000Y-85354000D01*
X157062000Y-49257500D02*
X155662000Y-49257500D01*
D72*
X115522500Y-107303000D02*
X113353000Y-107303000D01*
D71*
X122310000Y-85049000D02*
X123230000Y-85049000D01*
X130422000Y-128905000D02*
X130422000Y-125653000D01*
X179832000Y-103338000D02*
X173662000Y-103338000D01*
X166050000Y-111625000D02*
X164050000Y-113625000D01*
X109575000Y-103050000D02*
X109850000Y-102775000D01*
X117802000Y-83024000D02*
X117802000Y-82027000D01*
X165093000Y-103170000D02*
X165245000Y-103170000D01*
X131795000Y-121155000D02*
X131775000Y-121175000D01*
X132972000Y-120903000D02*
X132972000Y-121155000D01*
X110322000Y-118678000D02*
X110325000Y-118675000D01*
X164890500Y-102967500D02*
X165093000Y-103170000D01*
X169550000Y-93550000D02*
X169550000Y-97450000D01*
X166275000Y-111625000D02*
X166050000Y-111625000D01*
X130422000Y-125653000D02*
X130425000Y-125650000D01*
X109925000Y-86450000D02*
X112350000Y-84025000D01*
D72*
X113353000Y-107303000D02*
X112950000Y-106900000D01*
D71*
X159900000Y-49325000D02*
X158629500Y-49325000D01*
X132972000Y-121155000D02*
X131795000Y-121155000D01*
X169975000Y-111625000D02*
X168275000Y-111625000D01*
X149964000Y-70989000D02*
X150562500Y-71587500D01*
X123535000Y-85354000D02*
X124785000Y-85354000D01*
X106049500Y-103362500D02*
X109262500Y-103362500D01*
X110625000Y-73750000D02*
X109962500Y-73087500D01*
X169525000Y-102000000D02*
X169525000Y-103700000D01*
X166650000Y-104575000D02*
X166650000Y-111625000D01*
X155662000Y-49257500D02*
X154162000Y-49257500D01*
X122992500Y-49700500D02*
X122935500Y-49757500D01*
X151400000Y-81950000D02*
X151375000Y-81975000D01*
X117802000Y-83024000D02*
X117802000Y-84124000D01*
X179864000Y-115970000D02*
X175995000Y-115970000D01*
X164050000Y-113625000D02*
X139775000Y-113625000D01*
X129221000Y-85354000D02*
X129225000Y-85350000D01*
X107441500Y-51281500D02*
X106481500Y-51281500D01*
X158629500Y-49325000D02*
X158562000Y-49257500D01*
X109262500Y-103362500D02*
X109575000Y-103050000D01*
X117802000Y-82027000D02*
X117800000Y-82025000D01*
X133900000Y-119975000D02*
X132972000Y-120903000D01*
X160652500Y-53902500D02*
X160650000Y-53900000D01*
X109837500Y-73087500D02*
X109325000Y-73600000D01*
X169525000Y-103700000D02*
X168275000Y-104950000D01*
X109850000Y-96275000D02*
X110775000Y-95350000D01*
X175296000Y-87804000D02*
X169550000Y-93550000D01*
X112350000Y-84025000D02*
X112350000Y-81900000D01*
X135175000Y-119975000D02*
X133900000Y-119975000D01*
X116371000Y-101850000D02*
X116350000Y-101850000D01*
D72*
X115817500Y-107598000D02*
X115522500Y-107303000D01*
D71*
X109950000Y-86450000D02*
X109925000Y-86450000D01*
X171425000Y-103400000D02*
X169975000Y-104850000D01*
X106066000Y-118678000D02*
X110322000Y-118678000D01*
X159990500Y-102967500D02*
X164890500Y-102967500D01*
X166650000Y-111625000D02*
X166275000Y-111625000D01*
X130187500Y-48817500D02*
X128474500Y-48817500D01*
X105999500Y-87212500D02*
X109162500Y-87212500D01*
X110175000Y-104100000D02*
X110175000Y-103650000D01*
X109850000Y-102775000D02*
X109850000Y-96275000D01*
X109962500Y-73087500D02*
X109837500Y-73087500D01*
X127275000Y-85354000D02*
X129221000Y-85354000D01*
X110575000Y-68200000D02*
X110575000Y-72350000D01*
X168275000Y-104950000D02*
X168275000Y-111625000D01*
X124956500Y-49450500D02*
X124706500Y-49700500D01*
X158562000Y-49257500D02*
X157062000Y-49257500D01*
X124785000Y-85354000D02*
X127275000Y-85354000D01*
X151250000Y-70900000D02*
X150562500Y-71587500D01*
X123230000Y-85049000D02*
X123535000Y-85354000D01*
X121882500Y-49757500D02*
X121875000Y-49750000D01*
X109325000Y-73600000D02*
X109312500Y-73587500D01*
X110175000Y-103650000D02*
X109575000Y-103050000D01*
X124706500Y-49700500D02*
X122992500Y-49700500D01*
X110975000Y-95150000D02*
X110975000Y-93375000D01*
X165245000Y-103170000D02*
X166650000Y-104575000D01*
X109312500Y-73587500D02*
X106049500Y-73587500D01*
X171650000Y-111625000D02*
X169975000Y-111625000D01*
D72*
X117772500Y-107598000D02*
X115817500Y-107598000D01*
D71*
X169975000Y-104850000D02*
X169975000Y-111625000D01*
X180086000Y-87804000D02*
X175296000Y-87804000D01*
X148590000Y-70989000D02*
X149964000Y-70989000D01*
X122935500Y-49757500D02*
X121882500Y-49757500D01*
X163052000Y-53902500D02*
X160652500Y-53902500D01*
X117852000Y-84174000D02*
X117852000Y-86031000D01*
X115182000Y-128905000D02*
X115182000Y-125493000D01*
X122310000Y-83749000D02*
X122381000Y-83678000D01*
X110750000Y-87250000D02*
X109950000Y-86450000D01*
X128474500Y-48817500D02*
X127841500Y-49450500D01*
X109162500Y-87212500D02*
X109925000Y-86450000D01*
X120509000Y-97712000D02*
X116371000Y-101850000D01*
X122381000Y-83678000D02*
X126453000Y-83678000D01*
X127841500Y-49450500D02*
X126506500Y-49450500D01*
X151250000Y-70825000D02*
X151250000Y-70900000D01*
X135772000Y-121155000D02*
X135772000Y-120572000D01*
X117852000Y-86031000D02*
X117945000Y-86124000D01*
X110575000Y-72350000D02*
X109837500Y-73087500D01*
X117802000Y-84124000D02*
X117852000Y-84174000D01*
X168275000Y-111625000D02*
X166650000Y-111625000D01*
X126453000Y-83678000D02*
X127275000Y-84500000D01*
X135772000Y-120572000D02*
X135175000Y-119975000D01*
X126506500Y-49450500D02*
X124956500Y-49450500D01*
X150562500Y-71587500D02*
X151400000Y-72425000D01*
X115182000Y-125493000D02*
X115200000Y-125475000D01*
X173662000Y-103338000D02*
X173625000Y-103375000D01*
X117791500Y-107617000D02*
X117772500Y-107598000D01*
D72*
%TO.N,GND*%
X120820500Y-105617000D02*
X122762000Y-105617000D01*
D73*
X159990500Y-110587500D02*
X163546500Y-110587500D01*
X105406000Y-51308000D02*
X105409500Y-51311500D01*
D72*
X134000000Y-103617000D02*
X133985000Y-103632000D01*
D73*
X143562000Y-109676000D02*
X143510000Y-109728000D01*
X136088000Y-72799000D02*
X135241000Y-72799000D01*
X100625000Y-65635000D02*
X102465000Y-65635000D01*
X122310000Y-84399000D02*
X121849000Y-84399000D01*
X136037500Y-57764500D02*
X136017000Y-57785000D01*
X119110000Y-71272000D02*
X118269000Y-71272000D01*
X121412000Y-85217000D02*
X122301000Y-86106000D01*
X158838000Y-125349000D02*
X159639000Y-125349000D01*
X150062000Y-109780000D02*
X149987000Y-109855000D01*
X123289000Y-59464000D02*
X123317000Y-59436000D01*
D72*
X115817500Y-106048000D02*
X115522500Y-106343000D01*
D73*
X166200000Y-118280000D02*
X166116000Y-118364000D01*
D72*
X122762000Y-105617000D02*
X122809000Y-105664000D01*
D73*
X124500000Y-82725000D02*
X124500000Y-81838000D01*
X125664000Y-84394000D02*
X125730000Y-84328000D01*
D71*
X134850500Y-76491500D02*
X134948000Y-76394000D01*
D73*
X132922000Y-128905000D02*
X132922000Y-125650000D01*
X175631500Y-48377500D02*
X175641000Y-48387000D01*
X161430500Y-51702500D02*
X161417000Y-51689000D01*
X171196000Y-122555000D02*
X171196000Y-118872000D01*
X171216000Y-125355000D02*
X171952000Y-125355000D01*
X146390000Y-70724000D02*
X145400000Y-70724000D01*
X146654000Y-125095000D02*
X147701000Y-125095000D01*
X137414000Y-53844000D02*
X137437500Y-53867500D01*
X148824000Y-126004000D02*
X148971000Y-125857000D01*
X134619000Y-89534000D02*
X134493000Y-89408000D01*
X160528000Y-126111000D02*
X160655000Y-125984000D01*
X139818000Y-72779000D02*
X139818000Y-71993000D01*
X118733500Y-49033500D02*
X118745000Y-49022000D01*
X139818000Y-71993000D02*
X139774000Y-71949000D01*
X122428000Y-59464000D02*
X123289000Y-59464000D01*
X123289000Y-58392000D02*
X123317000Y-58420000D01*
X138811000Y-53841000D02*
X138837500Y-53867500D01*
X147687500Y-47547500D02*
X149147500Y-47547500D01*
X120260000Y-85049000D02*
X120260000Y-86097000D01*
X136588000Y-71054000D02*
X137736000Y-71054000D01*
X104394000Y-51308000D02*
X105406000Y-51308000D01*
X120649500Y-48895500D02*
X120650000Y-48895000D01*
X109317500Y-94712500D02*
X109347000Y-94742000D01*
X172277000Y-48377500D02*
X175631500Y-48377500D01*
X150062000Y-107406000D02*
X150062000Y-109780000D01*
D71*
X186944000Y-127000000D02*
X184531000Y-127000000D01*
D73*
X108596500Y-49033500D02*
X108077000Y-48514000D01*
X106066000Y-121178000D02*
X109327000Y-121178000D01*
X172246000Y-129195000D02*
X172246000Y-126712000D01*
X121849000Y-84399000D02*
X121412000Y-84836000D01*
X128775000Y-76925000D02*
X128090000Y-76240000D01*
X118269000Y-71272000D02*
X118184000Y-71187000D01*
X138837500Y-56667500D02*
X138837500Y-57684500D01*
X137414000Y-52705000D02*
X137414000Y-53844000D01*
X136017000Y-52705000D02*
X136017000Y-53847000D01*
X138746500Y-84224000D02*
X138746500Y-85408500D01*
X102465000Y-65635000D02*
X102489000Y-65659000D01*
X154103000Y-73370000D02*
X154103000Y-75386000D01*
X134896500Y-55267500D02*
X134874000Y-55245000D01*
D72*
X134127000Y-117617000D02*
X134112000Y-117602000D01*
D73*
X137736000Y-71054000D02*
X137869000Y-71187000D01*
X160603000Y-73370000D02*
X160603000Y-75513000D01*
X122428000Y-58392000D02*
X123289000Y-58392000D01*
X137437500Y-57808500D02*
X137541000Y-57912000D01*
X133088000Y-71079000D02*
X134838000Y-71079000D01*
X148824000Y-129011000D02*
X148824000Y-126004000D01*
X136563000Y-71079000D02*
X136588000Y-71054000D01*
X130187500Y-47547500D02*
X128347500Y-47547500D01*
X123535000Y-84394000D02*
X124785000Y-84394000D01*
D72*
X136220500Y-103617000D02*
X134000000Y-103617000D01*
D73*
X136017000Y-53847000D02*
X136037500Y-53867500D01*
X176664000Y-75304000D02*
X176657000Y-75311000D01*
X137437500Y-55267500D02*
X137437500Y-53867500D01*
X137437500Y-56667500D02*
X137437500Y-57808500D01*
X139774000Y-72735000D02*
X139818000Y-72779000D01*
X136614000Y-89534000D02*
X134619000Y-89534000D01*
X123264000Y-72175000D02*
X122403000Y-72175000D01*
D72*
X136220500Y-117617000D02*
X134127000Y-117617000D01*
D73*
X104013500Y-62737500D02*
X104013000Y-62738000D01*
X164310000Y-70810000D02*
X164338000Y-70838000D01*
X109291500Y-105862500D02*
X109347000Y-105918000D01*
X105097500Y-62737500D02*
X104013500Y-62737500D01*
X116787500Y-49033500D02*
X118733500Y-49033500D01*
D72*
X118203500Y-105617000D02*
X117772500Y-106048000D01*
D73*
X117682000Y-125777000D02*
X117856000Y-125603000D01*
X138837500Y-55267500D02*
X139931500Y-55267500D01*
X123231500Y-54855500D02*
X121801500Y-54855500D01*
X126506500Y-47639500D02*
X126492000Y-47625000D01*
X124785000Y-84394000D02*
X125664000Y-84394000D01*
D72*
X122921000Y-103617000D02*
X122936000Y-103632000D01*
D73*
X122403000Y-72175000D02*
X122375000Y-72203000D01*
X134838000Y-71079000D02*
X136563000Y-71079000D01*
X120649500Y-49787500D02*
X120649500Y-48895500D01*
X138811000Y-52705000D02*
X138811000Y-53841000D01*
X172246000Y-126712000D02*
X172974000Y-125984000D01*
X105999500Y-94712500D02*
X109317500Y-94712500D01*
D72*
X120820500Y-105617000D02*
X118203500Y-105617000D01*
D73*
X138837500Y-57684500D02*
X138938000Y-57785000D01*
X106049500Y-78587500D02*
X109194500Y-78587500D01*
X106049500Y-105862500D02*
X109291500Y-105862500D01*
X109327000Y-121178000D02*
X109347000Y-121158000D01*
X124706500Y-48150500D02*
X124706500Y-46997500D01*
X126506500Y-48490500D02*
X126506500Y-47639500D01*
X160603000Y-75513000D02*
X160655000Y-75565000D01*
X135241000Y-72799000D02*
X135202000Y-72838000D01*
X139931500Y-55267500D02*
X139954000Y-55245000D01*
X179832000Y-95838000D02*
X176450000Y-95838000D01*
X124706500Y-46997500D02*
X124714000Y-46990000D01*
X145400000Y-70724000D02*
X145161000Y-70485000D01*
X176558000Y-110970000D02*
X176530000Y-110998000D01*
X155504000Y-117729000D02*
X154690000Y-117729000D01*
X180086000Y-75304000D02*
X176664000Y-75304000D01*
X179864000Y-110970000D02*
X176558000Y-110970000D01*
X143562000Y-107406000D02*
X143562000Y-109676000D01*
X121031000Y-89186000D02*
X120989000Y-89228000D01*
X138746500Y-85408500D02*
X138684000Y-85471000D01*
D72*
X117772500Y-106048000D02*
X115817500Y-106048000D01*
D73*
X128347500Y-47547500D02*
X128270000Y-47625000D01*
X110287500Y-49033500D02*
X108596500Y-49033500D01*
X117682000Y-128905000D02*
X117682000Y-125777000D01*
X163322000Y-70810000D02*
X164310000Y-70810000D01*
X132922000Y-125650000D02*
X132969000Y-125603000D01*
D71*
X133588000Y-76491500D02*
X134850500Y-76491500D01*
D73*
X136037500Y-56667500D02*
X136037500Y-57764500D01*
X163546500Y-110587500D02*
X163576000Y-110617000D01*
X109194500Y-78587500D02*
X109220000Y-78613000D01*
X154103000Y-75386000D02*
X154051000Y-75438000D01*
X176450000Y-95838000D02*
X176403000Y-95885000D01*
D72*
X120920500Y-103617000D02*
X122921000Y-103617000D01*
D73*
X163052000Y-51702500D02*
X161430500Y-51702500D01*
X149147500Y-47547500D02*
X149225000Y-47625000D01*
X128090000Y-76240000D02*
X128090000Y-73219000D01*
X166936000Y-118280000D02*
X166200000Y-118280000D01*
X171196000Y-118872000D02*
X171069000Y-118745000D01*
X121801500Y-54855500D02*
X121793000Y-54864000D01*
X154690000Y-117729000D02*
X154629000Y-117790000D01*
X120260000Y-86097000D02*
X120269000Y-86106000D01*
X124500000Y-81838000D02*
X124482000Y-81820000D01*
X121412000Y-84836000D02*
X121412000Y-85217000D01*
X143792000Y-118237000D02*
X142875000Y-118237000D01*
X171952000Y-125355000D02*
X172085000Y-125222000D01*
X136037500Y-55267500D02*
X134896500Y-55267500D01*
X160528000Y-129159000D02*
X160528000Y-126111000D01*
D71*
%TO.N,CHIP_PU*%
X110287500Y-53533500D02*
X116787500Y-53533500D01*
X119573500Y-50747500D02*
X120649500Y-50747500D01*
X126387500Y-50777500D02*
X122935500Y-50777500D01*
X107441500Y-52301500D02*
X105439500Y-52301500D01*
X127077500Y-50087500D02*
X126387500Y-50777500D01*
X116787500Y-53533500D02*
X119573500Y-50747500D01*
X130187500Y-50087500D02*
X127077500Y-50087500D01*
X109055500Y-52301500D02*
X110287500Y-53533500D01*
X107441500Y-52301500D02*
X109055500Y-52301500D01*
X120679500Y-50777500D02*
X120649500Y-50747500D01*
X122935500Y-50777500D02*
X120679500Y-50777500D01*
X105439500Y-52301500D02*
X105409500Y-52271500D01*
D72*
%TO.N,5VUSB*%
X125730000Y-89408000D02*
X124968000Y-89408000D01*
X124968000Y-89408000D02*
X123825000Y-88265000D01*
X115062000Y-88773000D02*
X115062000Y-90170000D01*
D71*
X103081000Y-63035000D02*
X103124000Y-62992000D01*
X105097500Y-65647500D02*
X105100000Y-65650000D01*
D72*
X115062000Y-90170000D02*
X116304000Y-91412000D01*
D71*
X100625000Y-63035000D02*
X103081000Y-63035000D01*
D72*
X116304000Y-91412000D02*
X118209000Y-91412000D01*
D71*
X105097500Y-64437500D02*
X105097500Y-65647500D01*
%TO.N,XTAL_32K_P*%
X130187500Y-56437500D02*
X126569500Y-56437500D01*
X125575000Y-57432000D02*
X122428000Y-57432000D01*
X117904000Y-57432000D02*
X117558000Y-57778000D01*
X122428000Y-57432000D02*
X117904000Y-57432000D01*
X126569500Y-56437500D02*
X125575000Y-57432000D01*
%TO.N,XTAL_32K_N*%
X124234000Y-60424000D02*
X126950500Y-57707500D01*
X126950500Y-57707500D02*
X130187500Y-57707500D01*
X122428000Y-60424000D02*
X124234000Y-60424000D01*
X122082000Y-60078000D02*
X122428000Y-60424000D01*
X117558000Y-60078000D02*
X122082000Y-60078000D01*
%TO.N,BOOT*%
X147687500Y-64057500D02*
X149290500Y-64057500D01*
X154103000Y-68870000D02*
X160603000Y-68870000D01*
X160603000Y-68870000D02*
X162342000Y-68870000D01*
X149290500Y-64057500D02*
X154103000Y-68870000D01*
X162342000Y-68870000D02*
X163322000Y-69850000D01*
%TO.N,Net-(J12-Pin_1)*%
X157878000Y-129009000D02*
X158028000Y-129159000D01*
X157099000Y-125349000D02*
X156658000Y-124908000D01*
X157878000Y-125349000D02*
X157878000Y-129009000D01*
X156658000Y-124908000D02*
X156658000Y-122469000D01*
X157878000Y-125349000D02*
X157099000Y-125349000D01*
%TO.N,Net-(U2-VO)*%
X148628000Y-120053000D02*
X148628000Y-117602000D01*
X144752000Y-118237000D02*
X147993000Y-118237000D01*
X149809000Y-121234000D02*
X148628000Y-120053000D01*
X147993000Y-118237000D02*
X148628000Y-117602000D01*
X149809000Y-122528000D02*
X149809000Y-121234000D01*
%TO.N,Net-(J13-Pin_1)*%
X170256000Y-127051000D02*
X170256000Y-125355000D01*
X169746000Y-127561000D02*
X170256000Y-127051000D01*
X169551000Y-125355000D02*
X168656000Y-124460000D01*
X169746000Y-129195000D02*
X169746000Y-127561000D01*
X168656000Y-124460000D02*
X168656000Y-122555000D01*
X170256000Y-125355000D02*
X169551000Y-125355000D01*
%TO.N,Net-(U3-VO)*%
X156464000Y-117729000D02*
X160273000Y-117729000D01*
X160273000Y-117729000D02*
X160527000Y-117475000D01*
X160527000Y-120141000D02*
X160527000Y-117475000D01*
X161738000Y-122469000D02*
X161738000Y-121352000D01*
X161738000Y-121352000D02*
X160527000Y-120141000D01*
%TO.N,Net-(U4-VO)*%
X170181000Y-117093000D02*
X169735500Y-117538500D01*
X168994000Y-118280000D02*
X167896000Y-118280000D01*
X170181000Y-114681000D02*
X170181000Y-117093000D01*
X173736000Y-119507000D02*
X171767500Y-117538500D01*
X169735500Y-117538500D02*
X168994000Y-118280000D01*
X171767500Y-117538500D02*
X169735500Y-117538500D01*
X173736000Y-122555000D02*
X173736000Y-119507000D01*
D74*
%TO.N,Net-(C16-Pad2)*%
X119112000Y-72234000D02*
X119110000Y-72232000D01*
X120888000Y-72234000D02*
X119112000Y-72234000D01*
D72*
%TO.N,VIN_IP*%
X155237500Y-115237500D02*
X163487500Y-115237500D01*
X130250000Y-91525000D02*
X131975000Y-93250000D01*
X128025000Y-69675000D02*
X128050000Y-69700000D01*
X129100000Y-91525000D02*
X130250000Y-91525000D01*
X120889000Y-71215000D02*
X120888000Y-71214000D01*
X151025000Y-117580000D02*
X151003000Y-117602000D01*
X131975000Y-93250000D02*
X131975000Y-95300000D01*
X128025000Y-87400000D02*
X128025000Y-89328000D01*
X162902000Y-115823000D02*
X162902000Y-117475000D01*
X163487500Y-115237500D02*
X162902000Y-115823000D01*
X151025000Y-115225000D02*
X151025000Y-117580000D01*
X128105000Y-89408000D02*
X128105000Y-90530000D01*
X123264000Y-71215000D02*
X120889000Y-71215000D01*
X167806000Y-114681000D02*
X164044000Y-114681000D01*
X123363000Y-71314000D02*
X123264000Y-71215000D01*
X152873000Y-117602000D02*
X155237500Y-115237500D01*
X125550000Y-71314000D02*
X125550000Y-70525000D01*
X125550000Y-70525000D02*
X126400000Y-69675000D01*
X151003000Y-117602000D02*
X152873000Y-117602000D01*
X164044000Y-114681000D02*
X163487500Y-115237500D01*
X126400000Y-69675000D02*
X128025000Y-69675000D01*
X125550000Y-71314000D02*
X123363000Y-71314000D01*
X128105000Y-90530000D02*
X129100000Y-91525000D01*
%TO.N,VOUT_IP*%
X131445000Y-87757000D02*
X131445000Y-85963000D01*
D71*
X136563000Y-69529000D02*
X136588000Y-69504000D01*
D72*
X139737501Y-81680000D02*
X139324000Y-82093501D01*
X132969000Y-89281000D02*
X131445000Y-87757000D01*
D71*
X130630000Y-70284000D02*
X131385000Y-69529000D01*
D72*
X132969000Y-90420000D02*
X132969000Y-89281000D01*
D71*
X130630000Y-71314000D02*
X130630000Y-70284000D01*
X131385000Y-69529000D02*
X133088000Y-69529000D01*
X134838000Y-69529000D02*
X136563000Y-69529000D01*
D72*
X139324000Y-82093501D02*
X139324000Y-82724000D01*
D71*
X137804000Y-69504000D02*
X137825000Y-69525000D01*
D72*
X134684000Y-82724000D02*
X132984000Y-84424000D01*
D71*
X146485000Y-78660000D02*
X146485000Y-81680000D01*
D72*
X131445000Y-85963000D02*
X132984000Y-84424000D01*
X146485000Y-81680000D02*
X139737501Y-81680000D01*
D71*
X136588000Y-69504000D02*
X137804000Y-69504000D01*
X133088000Y-69529000D02*
X134838000Y-69529000D01*
D72*
X139324000Y-82724000D02*
X134684000Y-82724000D01*
D71*
X146450000Y-78625000D02*
X146485000Y-78660000D01*
%TO.N,BAT*%
X136088000Y-73759000D02*
X137558000Y-73759000D01*
X140164000Y-73789000D02*
X143225000Y-76850000D01*
X143425000Y-76850000D02*
X143550000Y-76975000D01*
X132498000Y-73854000D02*
X132588000Y-73764000D01*
X130630000Y-73854000D02*
X132498000Y-73854000D01*
X137558000Y-73759000D02*
X137588000Y-73789000D01*
X180086000Y-124460000D02*
X186944000Y-124460000D01*
X143550000Y-76975000D02*
X150375000Y-76975000D01*
X137588000Y-73789000D02*
X140164000Y-73789000D01*
X132588000Y-73764000D02*
X136083000Y-73764000D01*
X136083000Y-73764000D02*
X136088000Y-73759000D01*
X143225000Y-76850000D02*
X143425000Y-76850000D01*
X178054000Y-122428000D02*
X180086000Y-124460000D01*
D73*
%TO.N,Net-(C22-Pad1)*%
X138848000Y-72769000D02*
X138858000Y-72779000D01*
X137588000Y-72769000D02*
X138848000Y-72769000D01*
D71*
%TO.N,Net-(D14-A)*%
X146485000Y-93680000D02*
X140670000Y-93680000D01*
X139065000Y-89445000D02*
X139154000Y-89534000D01*
X137668000Y-92964000D02*
X138811000Y-91821000D01*
X139065000Y-87630000D02*
X139065000Y-89445000D01*
X140670000Y-93680000D02*
X138811000Y-91821000D01*
X136124000Y-85999000D02*
X136144000Y-85979000D01*
X132984000Y-85999000D02*
X136124000Y-85999000D01*
X139154000Y-91478000D02*
X139154000Y-89534000D01*
X138811000Y-91821000D02*
X139154000Y-91478000D01*
%TO.N,Net-(D1-A)*%
X146390000Y-72299000D02*
X148300000Y-72299000D01*
X148300000Y-72299000D02*
X148590000Y-72009000D01*
D74*
%TO.N,USB_D-*%
X107622501Y-62537500D02*
X108347501Y-63262500D01*
X100625000Y-63685000D02*
X101600001Y-63685000D01*
X108347501Y-63262500D02*
X127999500Y-63262500D01*
X107097500Y-62537500D02*
X107622501Y-62537500D01*
X105850000Y-63785000D02*
X107097500Y-62537500D01*
X127999500Y-63262500D02*
X128474500Y-62787500D01*
X128474500Y-62787500D02*
X130187500Y-62787500D01*
X101600001Y-63685000D02*
X101700001Y-63785000D01*
X101700001Y-63785000D02*
X105850000Y-63785000D01*
%TO.N,USB_D+*%
X107097500Y-65252500D02*
X107097500Y-64437500D01*
X104375000Y-66325000D02*
X106025000Y-66325000D01*
X101700001Y-64235000D02*
X102285000Y-64235000D01*
X127720500Y-63712500D02*
X128065500Y-64057500D01*
X102285000Y-64235000D02*
X104375000Y-66325000D01*
X100625000Y-64335000D02*
X101600001Y-64335000D01*
X101600001Y-64335000D02*
X101700001Y-64235000D01*
X106025000Y-66325000D02*
X107097500Y-65252500D01*
X107097500Y-64437500D02*
X107622501Y-64437500D01*
X107622501Y-64437500D02*
X108347501Y-63712500D01*
X108347501Y-63712500D02*
X127720500Y-63712500D01*
X128065500Y-64057500D02*
X130187500Y-64057500D01*
D73*
%TO.N,Net-(D8-A)*%
X123571000Y-73279000D02*
X124266000Y-72584000D01*
X116338000Y-74741500D02*
X118338000Y-74741500D01*
X124266000Y-72584000D02*
X125550000Y-72584000D01*
X118338000Y-74741500D02*
X119800500Y-73279000D01*
X119800500Y-73279000D02*
X123571000Y-73279000D01*
%TO.N,Net-(D10-K)*%
X122588000Y-76354000D02*
X120625500Y-76354000D01*
X120625500Y-76354000D02*
X120588000Y-76316500D01*
X116338000Y-76316500D02*
X118338000Y-76316500D01*
X118338000Y-76316500D02*
X120588000Y-76316500D01*
X123818000Y-75124000D02*
X122588000Y-76354000D01*
X125550000Y-75124000D02*
X123818000Y-75124000D01*
%TO.N,Net-(D10-A)*%
X120625500Y-74779000D02*
X120588000Y-74741500D01*
X122531000Y-74779000D02*
X122493500Y-74741500D01*
X122588000Y-74779000D02*
X120625500Y-74779000D01*
X123513000Y-73854000D02*
X122588000Y-74779000D01*
X125550000Y-73854000D02*
X123513000Y-73854000D01*
D71*
%TO.N,Net-(D12-A)*%
X132550500Y-77029000D02*
X133588000Y-78066500D01*
X131598000Y-77029000D02*
X132550500Y-77029000D01*
%TO.N,Net-(D13-A)*%
X125981500Y-54625500D02*
X124576500Y-54625500D01*
X124576500Y-54625500D02*
X123231500Y-53280500D01*
%TO.N,Net-(J11-Pin_1)*%
X145415000Y-125095000D02*
X144729000Y-124409000D01*
X145694000Y-125095000D02*
X145415000Y-125095000D01*
X144729000Y-124409000D02*
X144729000Y-122528000D01*
X145694000Y-126644000D02*
X145694000Y-125095000D01*
X146324000Y-127274000D02*
X145694000Y-126644000D01*
X146324000Y-129011000D02*
X146324000Y-127274000D01*
%TO.N,Net-(D15-A)*%
X134112000Y-92964000D02*
X136093000Y-92964000D01*
X132969000Y-91440000D02*
X132969000Y-91821000D01*
X132969000Y-91821000D02*
X134112000Y-92964000D01*
%TO.N,Net-(D16-A)*%
X140344000Y-84201500D02*
X140321500Y-84224000D01*
X140344000Y-82724000D02*
X140344000Y-84201500D01*
%TO.N,Net-(U8-CSB)*%
X119886000Y-84399000D02*
X118965000Y-85320000D01*
X118965000Y-85320000D02*
X118965000Y-86124000D01*
X120260000Y-84399000D02*
X119886000Y-84399000D01*
D73*
%TO.N,Net-(U8-SDO)*%
X122310000Y-83099000D02*
X123106000Y-83099000D01*
X123106000Y-83099000D02*
X123480000Y-82725000D01*
%TO.N,SCLK*%
X135763000Y-61214000D02*
X144907000Y-61214000D01*
X170942000Y-81661000D02*
X178943000Y-81661000D01*
X133222500Y-65307500D02*
X133222500Y-63754500D01*
X133222500Y-63754500D02*
X135255000Y-61722000D01*
X178943000Y-81661000D02*
X180086000Y-82804000D01*
X135255000Y-61722000D02*
X135763000Y-61214000D01*
%TO.N,MISO*%
X143382500Y-65307500D02*
X143382500Y-66420500D01*
X143382500Y-66420500D02*
X145669000Y-68707000D01*
X175133000Y-76708000D02*
X176229000Y-77804000D01*
X176229000Y-77804000D02*
X180086000Y-77804000D01*
X145669000Y-68707000D02*
X147955000Y-68707000D01*
%TO.N,MOSI*%
X149195500Y-65307500D02*
X149225000Y-65278000D01*
X175427000Y-80304000D02*
X180086000Y-80304000D01*
X173863000Y-78740000D02*
X175427000Y-80304000D01*
X145922500Y-65307500D02*
X149195500Y-65307500D01*
%TO.N,CS*%
X172847000Y-83058000D02*
X175093000Y-85304000D01*
X151369760Y-67056000D02*
X151376880Y-67063120D01*
X144652500Y-66307500D02*
X145401000Y-67056000D01*
X145401000Y-67056000D02*
X146812000Y-67056000D01*
X144652500Y-65307500D02*
X144652500Y-66307500D01*
X146812000Y-67056000D02*
X151369760Y-67056000D01*
X175093000Y-85304000D02*
X180086000Y-85304000D01*
%TO.N,SDA*%
X111175000Y-122025000D02*
X110000000Y-123200000D01*
X118500000Y-124750000D02*
X112325000Y-124750000D01*
X119200000Y-125450000D02*
X120775000Y-125450000D01*
X110050000Y-108025000D02*
X109650000Y-107625000D01*
D71*
X134761000Y-123839000D02*
X133985000Y-123063000D01*
D73*
X120182000Y-126432000D02*
X119187500Y-125437500D01*
X109650000Y-107625000D02*
X111050000Y-106225000D01*
D71*
X135422000Y-128905000D02*
X135422000Y-124500000D01*
D73*
X118900000Y-125150000D02*
X118500000Y-124750000D01*
X110050000Y-109225000D02*
X110050000Y-108025000D01*
D71*
X141025000Y-60175000D02*
X144725000Y-60175000D01*
D73*
X111175000Y-111075000D02*
X111175000Y-122025000D01*
D71*
X133985000Y-123063000D02*
X133992000Y-123056000D01*
D73*
X106049500Y-108362500D02*
X108912500Y-108362500D01*
X133461000Y-123839000D02*
X134761000Y-123839000D01*
X119187500Y-125437500D02*
X118900000Y-125150000D01*
D71*
X121050000Y-83425000D02*
X121275000Y-83200000D01*
D73*
X108912500Y-108362500D02*
X109650000Y-107625000D01*
D71*
X121275000Y-83200000D02*
X121275000Y-81875000D01*
D73*
X121107058Y-83482058D02*
X121050000Y-83425000D01*
D71*
X120726000Y-83749000D02*
X121050000Y-83425000D01*
D73*
X119187500Y-125437500D02*
X119200000Y-125450000D01*
D71*
X122875000Y-80275000D02*
X126100000Y-80275000D01*
D73*
X111050000Y-96625000D02*
X114975000Y-92700000D01*
X110000000Y-123200000D02*
X109522000Y-123678000D01*
X109522000Y-123678000D02*
X106066000Y-123678000D01*
D71*
X126100000Y-80275000D02*
X127700000Y-78675000D01*
X127700000Y-78675000D02*
X129450000Y-78675000D01*
D73*
X110025000Y-123200000D02*
X110000000Y-123200000D01*
D71*
X133992000Y-123056000D02*
X133992000Y-121155000D01*
X120260000Y-83749000D02*
X120726000Y-83749000D01*
D73*
X120182000Y-128905000D02*
X120182000Y-126432000D01*
D71*
X120260000Y-83749000D02*
X119297000Y-83749000D01*
X145922500Y-58977500D02*
X147687500Y-58977500D01*
D73*
X111050000Y-106225000D02*
X111050000Y-96625000D01*
X132850000Y-124450000D02*
X133461000Y-123839000D01*
D71*
X121275000Y-81875000D02*
X122650000Y-80500000D01*
D73*
X110775000Y-123950000D02*
X110025000Y-123200000D01*
D71*
X119297000Y-83749000D02*
X118872000Y-84174000D01*
X144725000Y-60175000D02*
X145922500Y-58977500D01*
D73*
X114975000Y-92700000D02*
X115100000Y-92700000D01*
D71*
X122650000Y-80500000D02*
X122875000Y-80275000D01*
X135422000Y-124500000D02*
X134761000Y-123839000D01*
D73*
X121107058Y-84257058D02*
X121107058Y-83482058D01*
%TO.N,SCL*%
X111825000Y-109625000D02*
X111375000Y-109175000D01*
X110950000Y-81200000D02*
X119785000Y-81200000D01*
X120260000Y-83099000D02*
X120260000Y-81675000D01*
X120350000Y-123725000D02*
X111825000Y-123725000D01*
X121000000Y-124375000D02*
X120350000Y-123725000D01*
D71*
X136792000Y-123250000D02*
X136792000Y-121155000D01*
D73*
X110450000Y-81700000D02*
X110950000Y-81200000D01*
X136742000Y-123200000D02*
X136792000Y-123250000D01*
X106066000Y-126178000D02*
X109622000Y-126178000D01*
X112075000Y-97200000D02*
X112050000Y-97175000D01*
X120260000Y-79340000D02*
X121175000Y-78425000D01*
X132025000Y-123200000D02*
X133200000Y-123200000D01*
X125675000Y-78425000D02*
X126700000Y-77400000D01*
X122682000Y-126057000D02*
X121000000Y-124375000D01*
X144650000Y-59150000D02*
X146092500Y-57707500D01*
X121000000Y-124375000D02*
X130850000Y-124375000D01*
X111825000Y-123725000D02*
X111825000Y-109625000D01*
X140975000Y-59150000D02*
X144650000Y-59150000D01*
X119785000Y-81200000D02*
X120260000Y-81675000D01*
X111825000Y-123975000D02*
X111825000Y-123725000D01*
X112075000Y-108250000D02*
X112075000Y-97200000D01*
X106049500Y-110862500D02*
X109462500Y-110862500D01*
X130850000Y-124375000D02*
X131975000Y-123250000D01*
D71*
X118897000Y-83099000D02*
X118822000Y-83024000D01*
D73*
X146092500Y-57707500D02*
X147687500Y-57707500D01*
X120260000Y-81675000D02*
X120260000Y-79340000D01*
D71*
X137922000Y-124587000D02*
X136792000Y-123457000D01*
D73*
X135675000Y-123200000D02*
X136742000Y-123200000D01*
D71*
X120260000Y-83099000D02*
X118897000Y-83099000D01*
X137922000Y-128905000D02*
X137922000Y-124587000D01*
D73*
X109462500Y-110862500D02*
X112075000Y-108250000D01*
D71*
X136792000Y-123457000D02*
X136792000Y-123250000D01*
D73*
X131975000Y-123250000D02*
X132025000Y-123200000D01*
X122682000Y-128905000D02*
X122682000Y-126057000D01*
X121175000Y-78425000D02*
X125675000Y-78425000D01*
X109622000Y-126178000D02*
X111825000Y-123975000D01*
%TO.N,TXD2*%
X128220500Y-58977500D02*
X124841000Y-62357000D01*
X112200000Y-88200000D02*
X110687500Y-89712500D01*
X130187500Y-58977500D02*
X128220500Y-58977500D01*
X110687500Y-89712500D02*
X105999500Y-89712500D01*
%TO.N,RXD2*%
X111368500Y-92212500D02*
X105999500Y-92212500D01*
X113030000Y-90551000D02*
X111368500Y-92212500D01*
X130187500Y-60247500D02*
X128220500Y-60247500D01*
X128220500Y-60247500D02*
X126111000Y-62357000D01*
%TO.N,ADC1*%
X179864000Y-113470000D02*
X175920000Y-113470000D01*
X175920000Y-113470000D02*
X173325000Y-110875000D01*
X159100000Y-59200000D02*
X158000000Y-59200000D01*
X172375000Y-109925000D02*
X172375000Y-101950000D01*
X163075000Y-67850000D02*
X163075000Y-63175000D01*
X150592500Y-48817500D02*
X147687500Y-48817500D01*
X152125000Y-50350000D02*
X150592500Y-48817500D01*
X173325000Y-110875000D02*
X172375000Y-109925000D01*
X163075000Y-63175000D02*
X159100000Y-59200000D01*
%TO.N,TXD1*%
X156250000Y-75575000D02*
X156250000Y-69925000D01*
X157375000Y-76700000D02*
X156250000Y-75575000D01*
X154700000Y-61650000D02*
X154700000Y-60400000D01*
X150300000Y-51975000D02*
X149682500Y-51357500D01*
X155550000Y-62500000D02*
X154700000Y-61650000D01*
X149682500Y-51357500D02*
X147687500Y-51357500D01*
X169213000Y-100838000D02*
X168200000Y-99825000D01*
X179832000Y-100838000D02*
X169213000Y-100838000D01*
X156250000Y-62500000D02*
X155550000Y-62500000D01*
%TO.N,RXD1*%
X157588000Y-98338000D02*
X155700000Y-96450000D01*
X149727500Y-52627500D02*
X147687500Y-52627500D01*
X179832000Y-98338000D02*
X157588000Y-98338000D01*
X157700000Y-68175000D02*
X157700000Y-62000000D01*
X151300000Y-54200000D02*
X149727500Y-52627500D01*
X154950000Y-95700000D02*
X154950000Y-85525000D01*
X155700000Y-96450000D02*
X154950000Y-95700000D01*
X157700000Y-62000000D02*
X155625000Y-59925000D01*
%TO.N,ADC2*%
X127381000Y-51943000D02*
X127966500Y-51357500D01*
X109287500Y-76087500D02*
X113919000Y-71456000D01*
X106049500Y-76087500D02*
X109287500Y-76087500D01*
X127966500Y-51357500D02*
X130187500Y-51357500D01*
X113919000Y-71456000D02*
X113919000Y-65151000D01*
D71*
%TO.N,MOSI_SD*%
X155662000Y-50277500D02*
X155662000Y-51522000D01*
X159027000Y-55118000D02*
X159142500Y-55002500D01*
X157861000Y-55118000D02*
X159027000Y-55118000D01*
X159142500Y-55002500D02*
X163052000Y-55002500D01*
X155662000Y-51522000D02*
X159142500Y-55002500D01*
X147687500Y-62787500D02*
X149175500Y-62787500D01*
X149175500Y-62787500D02*
X155321000Y-56642000D01*
X155321000Y-56642000D02*
X155702000Y-56642000D01*
%TO.N,SCLK_SD*%
X159199000Y-52832000D02*
X159228500Y-52802500D01*
X157062000Y-50636000D02*
X159228500Y-52802500D01*
X157062000Y-50277500D02*
X157062000Y-50636000D01*
X158115000Y-52832000D02*
X159199000Y-52832000D01*
X155448000Y-54991000D02*
X148921500Y-61517500D01*
X159228500Y-52802500D02*
X163052000Y-52802500D01*
X148921500Y-61517500D02*
X147687500Y-61517500D01*
%TO.N,CS_SD*%
X135762500Y-65307500D02*
X135762500Y-64257500D01*
X158750000Y-56769000D02*
X158750000Y-56102500D01*
X158115000Y-57404000D02*
X158750000Y-56769000D01*
X135762500Y-64257500D02*
X137155000Y-62865000D01*
X154162000Y-50277500D02*
X154162000Y-52562000D01*
X157861000Y-57404000D02*
X158115000Y-57404000D01*
X157702500Y-56102500D02*
X158750000Y-56102500D01*
X158750000Y-56102500D02*
X163052000Y-56102500D01*
X154162000Y-52562000D02*
X157702500Y-56102500D01*
X137155000Y-62865000D02*
X144907000Y-62865000D01*
%TO.N,MISO_SD*%
X159258000Y-51816000D02*
X160147000Y-50927000D01*
X161021500Y-50277500D02*
X161346500Y-50602500D01*
X160147000Y-50277500D02*
X161021500Y-50277500D01*
X161346500Y-50602500D02*
X163052000Y-50602500D01*
X148737500Y-60247500D02*
X147687500Y-60247500D01*
X154721000Y-54264000D02*
X148737500Y-60247500D01*
X158562000Y-50277500D02*
X160147000Y-50277500D01*
X160147000Y-50927000D02*
X160147000Y-50277500D01*
D73*
%TO.N,RELAY*%
X135864000Y-84774000D02*
X135864000Y-83764000D01*
X133100000Y-55150000D02*
X131847500Y-53897500D01*
X135864000Y-83764000D02*
X135850000Y-83750000D01*
X131847500Y-53897500D02*
X130187500Y-53897500D01*
%TO.N,/NC*%
X163099000Y-81630000D02*
X176737000Y-67992000D01*
X176737000Y-67992000D02*
X184709000Y-67992000D01*
X158735000Y-81630000D02*
X163099000Y-81630000D01*
%TO.N,/NO*%
X168148000Y-80645000D02*
X158685000Y-90108000D01*
X168529000Y-80264000D02*
X168529000Y-77724000D01*
X179705000Y-62992000D02*
X184709000Y-62992000D01*
X158685000Y-90108000D02*
X158685000Y-93680000D01*
X168529000Y-74168000D02*
X179705000Y-62992000D01*
X168148000Y-80645000D02*
X168529000Y-80264000D01*
X168529000Y-74549000D02*
X168529000Y-74168000D01*
%TO.N,/COM*%
X156591000Y-81407000D02*
X156591000Y-79629000D01*
X144535000Y-87630000D02*
X148599000Y-83566000D01*
X148599000Y-83566000D02*
X154432000Y-83566000D01*
X180387000Y-57992000D02*
X184709000Y-57992000D01*
X158115000Y-78105000D02*
X160274000Y-78105000D01*
X156591000Y-79629000D02*
X158115000Y-78105000D01*
X160274000Y-78105000D02*
X180387000Y-57992000D01*
X154432000Y-83566000D02*
X156591000Y-81407000D01*
%TO.N,Net-(U5-SW)*%
X132378000Y-72584000D02*
X132588000Y-72794000D01*
X130630000Y-72584000D02*
X132378000Y-72584000D01*
D71*
%TO.N,Net-(Q1-B)*%
X136884000Y-86338000D02*
X136884000Y-84774000D01*
X137884000Y-87338000D02*
X136884000Y-86338000D01*
X137884000Y-89534000D02*
X137884000Y-87338000D01*
%TO.N,Net-(U5-KEY)*%
X130630000Y-76977000D02*
X130578000Y-77029000D01*
X130630000Y-75124000D02*
X130630000Y-76977000D01*
X130578000Y-77029000D02*
X130578000Y-78279000D01*
D73*
%TO.N,Net-(R9-Pad2)*%
X131598000Y-79223000D02*
X131598000Y-78279000D01*
X132650000Y-80275000D02*
X131598000Y-79223000D01*
X143562000Y-98988000D02*
X143600000Y-98950000D01*
X135650000Y-95425000D02*
X134675000Y-94450000D01*
X143562000Y-102906000D02*
X143562000Y-98988000D01*
D71*
X150062000Y-102906000D02*
X143562000Y-102906000D01*
D73*
X140100000Y-95425000D02*
X135650000Y-95425000D01*
X132650000Y-81075000D02*
X132650000Y-80275000D01*
D71*
%TO.N,DHT_DATA*%
X116750000Y-70250000D02*
X116750000Y-66750000D01*
X152750000Y-102000000D02*
X156257500Y-105507500D01*
X127250000Y-62500000D02*
X128232500Y-61517500D01*
X118000000Y-65500000D02*
X123750000Y-65500000D01*
X156257500Y-105507500D02*
X159990500Y-105507500D01*
X128232500Y-61517500D02*
X130187500Y-61517500D01*
X159990500Y-105507500D02*
X163775500Y-105507500D01*
X152750000Y-99750000D02*
X152750000Y-102000000D01*
X163775500Y-105507500D02*
X165093000Y-104190000D01*
X116750000Y-66750000D02*
X118000000Y-65500000D01*
%TO.N,LED*%
X125981500Y-53605500D02*
X126959500Y-52627500D01*
X126959500Y-52627500D02*
X130187500Y-52627500D01*
D73*
%TO.N,IRQ1*%
X131445000Y-67056000D02*
X131953000Y-66548000D01*
X131953000Y-66168000D02*
X131952500Y-66167500D01*
X131952500Y-66167500D02*
X131952500Y-65307500D01*
X131953000Y-66548000D02*
X131953000Y-66168000D01*
X120054500Y-111633000D02*
X117856000Y-111633000D01*
X129921000Y-67056000D02*
X131445000Y-67056000D01*
X120070500Y-111617000D02*
X120054500Y-111633000D01*
X120820500Y-111617000D02*
X120070500Y-111617000D01*
%TO.N,IRQ3*%
X120820500Y-115617000D02*
X121746000Y-115617000D01*
X144603500Y-53897500D02*
X147687500Y-53897500D01*
X121746000Y-115617000D02*
X130683000Y-106680000D01*
X131191000Y-106172000D02*
X131191000Y-98298000D01*
X143764000Y-54737000D02*
X144603500Y-53897500D01*
X130683000Y-106680000D02*
X131191000Y-106172000D01*
%TO.N,IRQ2*%
X145365500Y-55167500D02*
X147687500Y-55167500D01*
X143383000Y-57150000D02*
X145365500Y-55167500D01*
X120820500Y-113617000D02*
X121570500Y-113617000D01*
X121570500Y-113617000D02*
X130048000Y-105139500D01*
X130048000Y-105139500D02*
X130048000Y-93218000D01*
%TO.N,RESET*%
X140462000Y-68834000D02*
X140462000Y-68453000D01*
X120820500Y-109617000D02*
X123936000Y-109617000D01*
X140842500Y-68072500D02*
X140842500Y-65307500D01*
X140462000Y-68453000D02*
X140842500Y-68072500D01*
X123936000Y-109617000D02*
X126492000Y-107061000D01*
X128270000Y-105283000D02*
X128270000Y-93091000D01*
X126492000Y-107061000D02*
X128270000Y-105283000D01*
%TO.N,MISO_LORA*%
X143891000Y-70739000D02*
X140208000Y-70739000D01*
X136220500Y-109617000D02*
X137525000Y-109617000D01*
X139572500Y-70103500D02*
X139572500Y-65307500D01*
X140208000Y-70739000D02*
X139572500Y-70103500D01*
X137525000Y-109617000D02*
X139827000Y-107315000D01*
X144399000Y-71247000D02*
X143891000Y-70739000D01*
X144399000Y-71628000D02*
X144399000Y-71247000D01*
X140208000Y-106934000D02*
X140208000Y-97536000D01*
X139827000Y-107315000D02*
X140208000Y-106934000D01*
%TO.N,CS_LORA*%
X133176000Y-105617000D02*
X132588000Y-105029000D01*
X132588000Y-105029000D02*
X132588000Y-100203000D01*
X134493000Y-67056000D02*
X134493000Y-65308000D01*
X136220500Y-105617000D02*
X133176000Y-105617000D01*
X134493000Y-65308000D02*
X134492500Y-65307500D01*
%TO.N,SCLK_LORA*%
X143637000Y-97663000D02*
X149098000Y-97663000D01*
X141224000Y-108204000D02*
X141224000Y-100076000D01*
X136220500Y-111617000D02*
X137811000Y-111617000D01*
X138302500Y-64307500D02*
X138302500Y-65307500D01*
X138602000Y-64008000D02*
X138302500Y-64307500D01*
X142621000Y-64008000D02*
X138602000Y-64008000D01*
X137811000Y-111617000D02*
X140589000Y-108839000D01*
X140589000Y-108839000D02*
X141224000Y-108204000D01*
X141224000Y-100076000D02*
X143637000Y-97663000D01*
%TO.N,MOSI_LORA*%
X137033000Y-65308000D02*
X137032500Y-65307500D01*
X137033000Y-67310000D02*
X137033000Y-65308000D01*
X133477000Y-81788000D02*
X133477000Y-81661000D01*
X136220500Y-107617000D02*
X138128000Y-107617000D01*
X138950000Y-106795000D02*
X138950000Y-100342000D01*
X138950000Y-100342000D02*
X133477000Y-94869000D01*
X138128000Y-107617000D02*
X138950000Y-106795000D01*
X133477000Y-81661000D02*
X137795000Y-77343000D01*
X133477000Y-94869000D02*
X133477000Y-94361000D01*
%TD*%
%TA.AperFunction,Conductor*%
%TO.N,+3.3VREG*%
G36*
X121036039Y-90189685D02*
G01*
X121068200Y-90219600D01*
X121221396Y-90423862D01*
X121387200Y-90644933D01*
X121411676Y-90710375D01*
X121412000Y-90719333D01*
X121412000Y-92837001D01*
X122300999Y-94106999D01*
X122301000Y-94107000D01*
X125201877Y-94107000D01*
X125241089Y-94113363D01*
X125899212Y-94332737D01*
X125956587Y-94372611D01*
X125983295Y-94437175D01*
X125984000Y-94450374D01*
X125984000Y-95410466D01*
X125964315Y-95477505D01*
X125911511Y-95523260D01*
X125894066Y-95529695D01*
X125307290Y-95697345D01*
X125111698Y-95753229D01*
X125077633Y-95758000D01*
X123190000Y-95758000D01*
X122809000Y-96011999D01*
X122809000Y-98390654D01*
X122791329Y-98454451D01*
X122464122Y-98999797D01*
X122412751Y-99047156D01*
X122357793Y-99060000D01*
X118796362Y-99060000D01*
X118729323Y-99040315D01*
X118708681Y-99023681D01*
X118273319Y-98588319D01*
X118239834Y-98526996D01*
X118237000Y-98500638D01*
X118237000Y-96943174D01*
X118256685Y-96876135D01*
X118262715Y-96867570D01*
X119507000Y-95250000D01*
X119507000Y-92625693D01*
X119520468Y-92569490D01*
X119526439Y-92557749D01*
X119546124Y-92490710D01*
X119558500Y-92404638D01*
X119558500Y-90423862D01*
X119578185Y-90356823D01*
X119594819Y-90336181D01*
X119724681Y-90206319D01*
X119786004Y-90172834D01*
X119812362Y-90170000D01*
X120969000Y-90170000D01*
X121036039Y-90189685D01*
G37*
%TD.AperFunction*%
%TD*%
%TA.AperFunction,Conductor*%
%TO.N,GND*%
G36*
X122585156Y-88537847D02*
G01*
X124530961Y-89753975D01*
X124552920Y-89771445D01*
X124559276Y-89777801D01*
X124592761Y-89839124D01*
X124594637Y-89850102D01*
X124713999Y-90804999D01*
X124714000Y-90805000D01*
X125931109Y-91656976D01*
X125974742Y-91711547D01*
X125984000Y-91758561D01*
X125984000Y-93561455D01*
X125964315Y-93628494D01*
X125963174Y-93630238D01*
X125796549Y-93880174D01*
X125742984Y-93925035D01*
X125673668Y-93933815D01*
X125654163Y-93929028D01*
X125337708Y-93823543D01*
X125337696Y-93823540D01*
X125290023Y-93811808D01*
X125290020Y-93811807D01*
X125290006Y-93811804D01*
X125250804Y-93805443D01*
X125208928Y-93802068D01*
X125201877Y-93801500D01*
X125201874Y-93801500D01*
X122554862Y-93801500D01*
X122487823Y-93781815D01*
X122467181Y-93765181D01*
X122366378Y-93664378D01*
X122352474Y-93647806D01*
X122340176Y-93630238D01*
X121990097Y-93130124D01*
X121815415Y-92880578D01*
X121793097Y-92814369D01*
X121793000Y-92809469D01*
X121793000Y-90423999D01*
X121539001Y-89916001D01*
X121539000Y-89916000D01*
X121538999Y-89916000D01*
X121190056Y-89916000D01*
X121133856Y-89902533D01*
X121122111Y-89896561D01*
X121109612Y-89892890D01*
X121055078Y-89876877D01*
X121055072Y-89876876D01*
X120969000Y-89864500D01*
X120968997Y-89864500D01*
X120690527Y-89864500D01*
X120623488Y-89844815D01*
X120577733Y-89792011D01*
X120567789Y-89722853D01*
X120587354Y-89671716D01*
X120629374Y-89608686D01*
X120630816Y-89606504D01*
X120631958Y-89604759D01*
X120631958Y-89604758D01*
X120631963Y-89604751D01*
X120669439Y-89523567D01*
X120689124Y-89456528D01*
X120701500Y-89370456D01*
X120701500Y-88802272D01*
X120693327Y-88732082D01*
X120680236Y-88676628D01*
X120680234Y-88676622D01*
X120679410Y-88673132D01*
X120680745Y-88672816D01*
X120680488Y-88608543D01*
X120718026Y-88549614D01*
X120781465Y-88520334D01*
X120799604Y-88519000D01*
X122519437Y-88519000D01*
X122585156Y-88537847D01*
G37*
%TD.AperFunction*%
%TD*%
%TA.AperFunction,Conductor*%
%TO.N,5VUSB*%
G36*
X120259403Y-88538685D02*
G01*
X120303273Y-88587546D01*
X120382909Y-88746818D01*
X120396000Y-88802272D01*
X120396000Y-89370456D01*
X120376315Y-89437495D01*
X120375174Y-89439239D01*
X120178811Y-89733783D01*
X120125246Y-89778644D01*
X120075637Y-89789000D01*
X119506999Y-89789000D01*
X119253000Y-90042999D01*
X119253000Y-92404638D01*
X119233315Y-92471677D01*
X119216681Y-92492319D01*
X118908319Y-92800681D01*
X118846996Y-92834166D01*
X118820638Y-92837000D01*
X117907362Y-92837000D01*
X117840323Y-92817315D01*
X117819681Y-92800681D01*
X117384319Y-92365319D01*
X117350834Y-92303996D01*
X117348000Y-92277638D01*
X117348000Y-89840362D01*
X117367685Y-89773323D01*
X117384319Y-89752681D01*
X118581681Y-88555319D01*
X118643004Y-88521834D01*
X118669362Y-88519000D01*
X120192364Y-88519000D01*
X120259403Y-88538685D01*
G37*
%TD.AperFunction*%
%TD*%
M02*
